<?xml version="1.0" encoding="utf-8" standalone="no"?>
<!DOCTYPE svg PUBLIC "-//W3C//DTD SVG 1.1//EN"
  "http://www.w3.org/Graphics/SVG/1.1/DTD/svg11.dtd">
<!-- Created with matplotlib (https://matplotlib.org/) -->
<svg height="1440pt" version="1.1" viewBox="0 0 1440 1440" width="1440pt" xmlns="http://www.w3.org/2000/svg" xmlns:xlink="http://www.w3.org/1999/xlink">
 <defs>
  <style type="text/css">
*{stroke-linecap:butt;stroke-linejoin:round;white-space:pre;}
  </style>
 </defs>
 <g id="figure_1">
  <g id="patch_1">
   <path d="M 0 1440 
L 1440 1440 
L 1440 0 
L 0 0 
z
" style="fill:#ffffff;"/>
  </g>
  <g id="axes_1">
   <g id="patch_2">
    <path d="M 1281.6 716.4 
C 1281.6 645.015102 1267.538732 574.324332 1240.220914 508.373286 
C 1212.903096 442.42224 1172.859992 382.493499 1122.383246 332.016754 
C 1071.906501 281.540008 1011.97776 241.496904 946.026714 214.179086 
C 880.075668 186.861268 809.384898 172.8 738 172.8 
C 666.615102 172.8 595.924332 186.861268 529.973286 214.179086 
C 464.02224 241.496904 404.093499 281.540008 353.616754 332.016754 
C 303.140008 382.493499 263.096904 442.42224 235.779086 508.373286 
C 208.461268 574.324332 194.4 645.015102 194.4 716.4 
C 194.4 787.784898 208.461268 858.475668 235.779086 924.426714 
C 263.096904 990.37776 303.140008 1050.306501 353.616754 1100.783246 
C 404.093499 1151.259992 464.02224 1191.303096 529.973286 1218.620914 
C 595.924332 1245.938732 666.615102 1260 738 1260 
C 809.384898 1260 880.075668 1245.938732 946.026714 1218.620914 
C 1011.97776 1191.303096 1071.906501 1151.259992 1122.383246 1100.783246 
C 1172.859992 1050.306501 1212.903096 990.37776 1240.220914 924.426714 
C 1267.538732 858.475668 1281.6 787.784898 1281.6 716.4 
M 738 716.4 
C 738 716.4 738 716.4 738 716.4 
C 738 716.4 738 716.4 738 716.4 
C 738 716.4 738 716.4 738 716.4 
C 738 716.4 738 716.4 738 716.4 
C 738 716.4 738 716.4 738 716.4 
C 738 716.4 738 716.4 738 716.4 
C 738 716.4 738 716.4 738 716.4 
C 738 716.4 738 716.4 738 716.4 
C 738 716.4 738 716.4 738 716.4 
C 738 716.4 738 716.4 738 716.4 
C 738 716.4 738 716.4 738 716.4 
C 738 716.4 738 716.4 738 716.4 
C 738 716.4 738 716.4 738 716.4 
C 738 716.4 738 716.4 738 716.4 
C 738 716.4 738 716.4 738 716.4 
C 738 716.4 738 716.4 738 716.4 
M 1281.6 716.4 
z
" style="fill:#ffffff;"/>
   </g>
   <g id="patch_3">
    <path clip-path="url(#pf9b4028670)" d="M 738 716.4 
L 738.512393 716.389249 
L 740.046189 716.314096 
L 742.591272 716.110658 
L 746.130849 715.716088 
L 750.641578 715.069082 
L 756.093713 714.110376 
L 762.451314 712.783229 
L 769.672487 711.033887 
L 777.709667 708.812024 
L 786.509941 706.071165 
L 796.015405 702.769066 
L 806.163555 698.868085 
L 816.887708 694.335498 
L 828.117454 689.143795 
L 839.779126 683.270931 
L 851.796302 676.700539 
L 864.090313 669.4221 
L 876.580775 661.431074 
L 889.186124 652.728987 
L 901.824167 643.323467 
L 914.412627 633.228249 
L 926.869692 622.463117 
L 939.114561 611.053824 
L 951.067979 599.031944 
L 962.65276 586.434704 
L 973.794298 573.304757 
L 984.421053 559.689923 
L 994.465022 545.642893 
L 1003.86218 531.22089 
L 1012.552889 516.485303 
L 1020.482285 501.501285 
L 1027.600625 486.337324 
L 1033.863593 471.064788 
L 1039.232579 455.757447 
L 1043.674907 440.49098 
L 1047.164029 425.342458 
L 1049.679667 410.38982 
L 1051.207922 395.711346 
L 1051.741328 381.385111 
L 1051.278869 367.488454 
L 1049.825943 354.097436 
L 1047.394288 341.286318 
L 1044.001861 329.127035 
L 1039.672674 317.688695 
L 1034.436586 307.037095 
L 1028.32906 297.234248 
L 1021.390875 288.337947 
L 1013.667805 280.401346 
L 1005.210264 273.472582 
L 996.072916 267.594417 
L 986.314264 262.803929 
L 975.9962 259.13223 
L 965.183547 256.604233 
L 953.943571 255.238451 
L 942.345482 255.046847 
L 930.45992 256.034726 
L 918.35844 258.200669 
L 906.112977 261.536514 
L 893.795329 266.027387 
L 881.476624 271.651771 
L 869.22681 278.381623 
L 857.114141 286.182542 
L 845.204686 295.013967 
L 833.561855 304.829429 
L 822.245937 315.576836 
L 811.313673 327.198798 
L 800.817846 339.632993 
L 790.806912 352.812555 
L 781.32465 366.666506 
L 772.409862 381.120208 
L 764.096093 396.095841 
L 756.411409 411.512902 
L 749.378196 427.288727 
L 743.013021 443.339022 
L 737.326519 459.578406 
L 732.323333 475.920965 
L 728.002098 492.2808 
L 724.355466 508.572589 
L 721.370177 524.712132 
L 719.027173 540.616892 
L 717.301759 556.206526 
L 716.163797 571.403402 
L 715.577949 586.133088 
L 715.503954 600.324833 
L 715.896945 613.912008 
L 716.707794 626.832529 
L 717.883496 639.029242 
L 719.367578 650.450277 
L 721.100536 661.049365 
L 723.020295 670.786117 
L 725.062686 679.626258 
L 727.161946 687.541827 
L 729.25122 694.511323 
L 731.263085 700.519818 
L 733.13007 705.559015 
L 734.785182 709.627267 
L 736.162428 712.729545 
L 737.197332 714.877368 
L 737.827445 716.088681 
L 737.992837 716.387692 
L 737.636575 715.804669 
L 736.705183 714.375689 
L 735.149074 712.142358 
L 732.922959 709.151482 
L 729.986223 705.454711 
L 726.303274 701.108152 
L 721.843851 696.17194 
L 716.583302 690.709801 
L 710.502814 684.788575 
L 703.589611 678.477727 
L 695.837102 671.848842 
L 687.244994 664.975102 
L 677.819351 657.930758 
L 667.572618 650.790594 
L 656.523589 643.629392 
L 644.697343 636.521392 
L 632.125122 629.539769 
L 618.844175 622.756107 
L 604.897555 616.239895 
L 590.333875 610.058035 
L 575.207025 604.274376 
L 559.575846 598.94926 
L 543.503782 594.139105 
L 527.058477 589.896016 
L 510.311362 586.267423 
L 493.337204 583.295755 
L 476.213629 581.018158 
L 459.020629 579.466241 
L 441.840045 578.66587 
L 424.755044 578.637004 
L 407.849574 579.393567 
L 391.207821 580.943374 
L 374.913659 583.288093 
L 359.050099 586.423257 
L 343.698745 590.338316 
L 328.939257 595.016739 
L 314.848823 600.436153 
L 301.501653 606.56853 
L 288.968484 613.380407 
L 277.316113 620.833156 
L 266.606952 628.883281 
L 256.898615 637.482757 
L 248.243533 646.579399 
L 240.688606 656.117259 
L 234.27489 666.037055 
L 229.037323 676.27662 
L 225.004491 686.771375 
L 222.198441 697.454812 
L 220.634527 708.259003 
L 220.321316 719.115109 
L 221.260521 729.9539 
L 223.447 740.706274 
L 226.868782 751.303784 
L 231.50715 761.679148 
L 237.336767 771.766762 
L 244.325844 781.503191 
L 252.436352 790.827654 
L 261.624278 799.682481 
L 271.839913 808.013554 
L 283.028191 815.770719 
L 295.129046 822.908173 
L 308.077822 829.384812 
L 321.805695 835.164556 
L 336.24013 840.21663 
L 351.305366 844.515806 
L 366.922914 848.042613 
L 383.012076 850.783494 
L 399.490477 852.730933 
L 416.274605 853.883525 
L 433.280362 854.246014 
L 450.423612 853.829275 
L 467.620729 852.650264 
L 484.789144 850.73191 
L 501.847873 848.102976 
L 518.718045 844.797865 
L 535.323403 840.8564 
L 551.590791 836.32355 
L 567.450615 831.249123 
L 582.837281 825.687428 
L 597.6896 819.696897 
L 611.951163 813.339678 
L 625.570682 806.681205 
L 638.50229 799.789734 
L 650.705809 792.735863 
L 662.146969 785.592036 
L 672.797594 778.432027 
L 682.635736 771.330413 
L 691.645768 764.362043 
L 699.818436 757.601504 
L 707.15086 751.122577 
L 713.646492 744.997712 
L 719.315033 739.297499 
L 724.172297 734.090152 
L 728.240045 729.441014 
L 731.545765 725.412074 
L 734.12242 722.061506 
L 736.008154 719.44324 
L 737.245966 717.606551 
L 737.883341 716.595687 
L 737.971865 716.449528 
L 737.566798 717.20128 
L 736.726629 718.878209 
L 735.512609 721.501415 
L 733.988264 725.085647 
L 732.218892 729.639162 
L 730.271051 735.16363 
L 728.212038 741.654078 
L 726.109366 749.098889 
L 724.03024 757.479838 
L 722.041032 766.772179 
L 720.206772 776.944771 
L 718.590642 787.960255 
L 717.253492 799.775269 
L 716.253364 812.340708 
L 715.645052 825.602017 
L 715.47967 839.499531 
L 715.804263 853.968843 
L 716.661436 868.941209 
L 718.089026 884.343979 
L 720.119803 900.101061 
L 722.78121 916.133405 
L 726.095148 932.359504 
L 730.077791 948.695925 
L 734.739456 965.057836 
L 740.084505 981.359558 
L 746.111299 997.515117 
L 752.812195 1013.438795 
L 760.173581 1029.045685 
L 768.175965 1044.252242 
L 776.794099 1058.976817 
L 785.997152 1073.140184 
L 795.748918 1086.666052 
L 806.00807 1099.481556 
L 816.728452 1111.517719 
L 827.859398 1122.709894 
L 839.346097 1132.998179 
L 851.129981 1142.32779 
L 863.149146 1150.649407 
L 875.338794 1157.919483 
L 887.631703 1164.100508 
L 899.958709 1169.161237 
L 912.249209 1173.076873 
L 924.431677 1175.829208 
L 936.434178 1177.406718 
L 948.184903 1177.804612 
L 959.612689 1177.024838 
L 970.647545 1175.07604 
L 981.22117 1171.973474 
L 991.267459 1167.738874 
L 1000.722994 1162.40028 
L 1009.527522 1155.991818 
L 1017.624404 1148.553446 
L 1024.961052 1140.130656 
L 1031.489326 1130.774138 
L 1037.165905 1120.539417 
L 1041.952631 1109.486448 
L 1045.81681 1097.679195 
L 1048.731478 1085.185167 
L 1050.675628 1072.07495 
L 1051.634394 1058.421705 
L 1051.599195 1044.300659 
L 1050.567835 1029.788578 
L 1048.544552 1014.963237 
L 1045.540035 999.902881 
L 1041.57138 984.685686 
L 1036.662018 969.389223 
L 1030.84158 954.089932 
L 1024.145738 938.862601 
L 1016.615984 923.779859 
L 1008.299385 908.911694 
L 999.248287 894.324981 
L 989.519986 880.083042 
L 979.176362 866.245232 
L 968.283483 852.866552 
L 956.911179 839.997297 
L 945.13258 827.682739 
L 933.023647 815.962848 
L 920.662664 804.872049 
L 908.129725 794.439025 
L 895.506206 784.686559 
L 882.874217 775.63142 
L 870.316064 767.284292 
L 857.913693 759.64975 
L 845.748147 752.726278 
L 833.899017 746.506333 
L 822.443916 740.976455 
L 811.45795 736.117413 
L 801.013219 731.9044 
L 791.178328 728.307265 
L 782.017924 725.290787 
L 773.592261 722.81498 
L 765.956797 720.835437 
L 759.161812 719.303708 
L 753.252073 718.167697 
L 748.266531 717.372103 
L 744.238056 716.858862 
L 741.193214 716.567629 
L 739.152091 716.436266 
L 738.128151 716.401344 
L 738.128151 716.398656 
L 739.152091 716.363734 
L 741.193214 716.232371 
L 744.238056 715.941138 
L 748.266531 715.427897 
L 753.252073 714.632303 
L 759.161812 713.496292 
L 765.956797 711.964563 
L 773.592261 709.98502 
L 782.017924 707.509213 
L 791.178328 704.492735 
L 801.013219 700.8956 
L 811.45795 696.682587 
L 822.443916 691.823545 
L 833.899017 686.293667 
L 845.748147 680.073722 
L 857.913693 673.15025 
L 870.316064 665.515708 
L 882.874217 657.16858 
L 895.506206 648.113441 
L 908.129725 638.360975 
L 920.662664 627.927951 
L 933.023647 616.837152 
L 945.13258 605.117261 
L 956.911179 592.802703 
L 968.283483 579.933448 
L 979.176362 566.554768 
L 989.519986 552.716958 
L 999.248287 538.475019 
L 1008.299385 523.888306 
L 1016.615984 509.020141 
L 1024.145738 493.937399 
L 1030.84158 478.710068 
L 1036.662018 463.410777 
L 1041.57138 448.114314 
L 1045.540035 432.897119 
L 1048.544552 417.836763 
L 1050.567835 403.011422 
L 1051.599195 388.499341 
L 1051.634394 374.378295 
L 1050.675628 360.72505 
L 1048.731478 347.614833 
L 1045.81681 335.120805 
L 1041.952631 323.313552 
L 1037.165905 312.260583 
L 1031.489326 302.025862 
L 1024.961052 292.669344 
L 1017.624404 284.246554 
L 1009.527522 276.808182 
L 1000.722994 270.39972 
L 991.267459 265.061126 
L 981.22117 260.826526 
L 970.647545 257.72396 
L 959.612689 255.775162 
L 948.184903 254.995388 
L 936.434178 255.393282 
L 924.431677 256.970792 
L 912.249209 259.723127 
L 899.958709 263.638763 
L 887.631703 268.699492 
L 875.338794 274.880517 
L 863.149146 282.150593 
L 851.129981 290.47221 
L 839.346097 299.801821 
L 827.859398 310.090106 
L 816.728452 321.282281 
L 806.00807 333.318444 
L 795.748918 346.133948 
L 785.997152 359.659816 
L 776.794099 373.823183 
L 768.175965 388.547758 
L 760.173581 403.754315 
L 752.812195 419.361205 
L 746.111299 435.284883 
L 740.084505 451.440442 
L 734.739456 467.742164 
L 730.077791 484.104075 
L 726.095148 500.440496 
L 722.78121 516.666595 
L 720.119803 532.698939 
L 718.089026 548.456021 
L 716.661436 563.858791 
L 715.804263 578.831157 
L 715.47967 593.300469 
L 715.645052 607.197983 
L 716.253364 620.459292 
L 717.253492 633.024731 
L 718.590642 644.839745 
L 720.206772 655.855229 
L 722.041032 666.027821 
L 724.03024 675.320162 
L 726.109366 683.701111 
L 728.212038 691.145922 
L 730.271051 697.63637 
L 732.218892 703.160838 
L 733.988264 707.714353 
L 735.512609 711.298585 
L 736.726629 713.921791 
L 737.566798 715.59872 
L 737.971865 716.350472 
L 737.883341 716.204313 
L 737.245966 715.193449 
L 736.008154 713.35676 
L 734.12242 710.738494 
L 731.545765 707.387926 
L 728.240045 703.358986 
L 724.172297 698.709848 
L 719.315033 693.502501 
L 713.646492 687.802288 
L 707.15086 681.677423 
L 699.818436 675.198496 
L 691.645768 668.437957 
L 682.635736 661.469587 
L 672.797594 654.367973 
L 662.146969 647.207964 
L 650.705809 640.064137 
L 638.50229 633.010266 
L 625.570682 626.118795 
L 611.951163 619.460322 
L 597.6896 613.103103 
L 582.837281 607.112572 
L 567.450615 601.550877 
L 551.590791 596.47645 
L 535.323403 591.9436 
L 518.718045 588.002135 
L 501.847873 584.697024 
L 484.789144 582.06809 
L 467.620729 580.149736 
L 450.423612 578.970725 
L 433.280362 578.553986 
L 416.274605 578.916475 
L 399.490477 580.069067 
L 383.012076 582.016506 
L 366.922914 584.757387 
L 351.305366 588.284194 
L 336.24013 592.58337 
L 321.805695 597.635444 
L 308.077822 603.415188 
L 295.129046 609.891827 
L 283.028191 617.029281 
L 271.839913 624.786446 
L 261.624278 633.117519 
L 252.436352 641.972346 
L 244.325844 651.296809 
L 237.336767 661.033238 
L 231.50715 671.120852 
L 226.868782 681.496216 
L 223.447 692.093726 
L 221.260521 702.8461 
L 220.321316 713.684891 
L 220.634527 724.540997 
L 222.198441 735.345188 
L 225.004491 746.028625 
L 229.037323 756.52338 
L 234.27489 766.762945 
L 240.688606 776.682741 
L 248.243533 786.220601 
L 256.898615 795.317243 
L 266.606952 803.916719 
L 277.316113 811.966844 
L 288.968484 819.419593 
L 301.501653 826.23147 
L 314.848823 832.363847 
L 328.939257 837.783261 
L 343.698745 842.461684 
L 359.050099 846.376743 
L 374.913659 849.511907 
L 391.207821 851.856626 
L 407.849574 853.406433 
L 424.755044 854.162996 
L 441.840045 854.13413 
L 459.020629 853.333759 
L 476.213629 851.781842 
L 493.337204 849.504245 
L 510.311362 846.532577 
L 527.058477 842.903984 
L 543.503782 838.660895 
L 559.575846 833.85074 
L 575.207025 828.525624 
L 590.333875 822.741965 
L 604.897555 816.560105 
L 618.844175 810.043893 
L 632.125122 803.260231 
L 644.697343 796.278608 
L 656.523589 789.170608 
L 667.572618 782.009406 
L 677.819351 774.869242 
L 687.244994 767.824898 
L 695.837102 760.951158 
L 703.589611 754.322273 
L 710.502814 748.011425 
L 716.583302 742.090199 
L 721.843851 736.62806 
L 726.303274 731.691848 
L 729.986223 727.345289 
L 732.922959 723.648518 
L 735.149074 720.657642 
L 736.705183 718.424311 
L 737.636575 716.995331 
L 737.992837 716.412308 
L 737.827445 716.711319 
L 737.197332 717.922632 
L 736.162428 720.070455 
L 734.785182 723.172733 
L 733.13007 727.240985 
L 731.263085 732.280182 
L 729.25122 738.288677 
L 727.161946 745.258173 
L 725.062686 753.173742 
L 723.020295 762.013883 
L 721.100536 771.750635 
L 719.367578 782.349723 
L 717.883496 793.770758 
L 716.707794 805.967471 
L 715.896945 818.887992 
L 715.503954 832.475167 
L 715.577949 846.666912 
L 716.163797 861.396598 
L 717.301759 876.593474 
L 719.027173 892.183108 
L 721.370177 908.087868 
L 724.355466 924.227411 
L 728.002098 940.5192 
L 732.323333 956.879035 
L 737.326519 973.221594 
L 743.013021 989.460978 
L 749.378196 1005.511273 
L 756.411409 1021.287098 
L 764.096093 1036.704159 
L 772.409862 1051.679792 
L 781.32465 1066.133494 
L 790.806912 1079.987445 
L 800.817846 1093.167007 
L 811.313673 1105.601202 
L 822.245937 1117.223164 
L 833.561855 1127.970571 
L 845.204686 1137.786033 
L 857.114141 1146.617458 
L 869.22681 1154.418377 
L 881.476624 1161.148229 
L 893.795329 1166.772613 
L 906.112977 1171.263486 
L 918.35844 1174.599331 
L 930.45992 1176.765274 
L 942.345482 1177.753153 
L 953.943571 1177.561549 
L 965.183547 1176.195767 
L 975.9962 1173.66777 
L 986.314264 1169.996071 
L 996.072916 1165.205583 
L 1005.210264 1159.327418 
L 1013.667805 1152.398654 
L 1021.390875 1144.462053 
L 1028.32906 1135.565752 
L 1034.436586 1125.762905 
L 1039.672674 1115.111305 
L 1044.001861 1103.672965 
L 1047.394288 1091.513682 
L 1049.825943 1078.702564 
L 1051.278869 1065.311546 
L 1051.741328 1051.414889 
L 1051.207922 1037.088654 
L 1049.679667 1022.41018 
L 1047.164029 1007.457542 
L 1043.674907 992.30902 
L 1039.232579 977.042553 
L 1033.863593 961.735212 
L 1027.600625 946.462676 
L 1020.482285 931.298715 
L 1012.552889 916.314697 
L 1003.86218 901.57911 
L 994.465022 887.157107 
L 984.421053 873.110077 
L 973.794298 859.495243 
L 962.65276 846.365296 
L 951.067979 833.768056 
L 939.114561 821.746176 
L 926.869692 810.336883 
L 914.412627 799.571751 
L 901.824167 789.476533 
L 889.186124 780.071013 
L 876.580775 771.368926 
L 864.090313 763.3779 
L 851.796302 756.099461 
L 839.779126 749.529069 
L 828.117454 743.656205 
L 816.887708 738.464502 
L 806.163555 733.931915 
L 796.015405 730.030934 
L 786.509941 726.728835 
L 777.709667 723.987976 
L 769.672487 721.766113 
L 762.451314 720.016771 
L 756.093713 718.689624 
L 750.641578 717.730918 
L 746.130849 717.083912 
L 742.591272 716.689342 
L 740.046189 716.485904 
L 738.512393 716.410751 
L 738 716.4 
z
" style="fill:#3f59b0;stroke:#191970;stroke-linejoin:miter;stroke-width:2;"/>
   </g>
   <g id="patch_4">
    <path clip-path="url(#pf9b4028670)" d="M 738 716.4 
L 737.487607 716.410751 
L 735.953811 716.485904 
L 733.408728 716.689342 
L 729.869151 717.083912 
L 725.358422 717.730918 
L 719.906287 718.689624 
L 713.548686 720.016771 
L 706.327513 721.766113 
L 698.290333 723.987976 
L 689.490059 726.728835 
L 679.984595 730.030934 
L 669.836445 733.931915 
L 659.112292 738.464502 
L 647.882546 743.656205 
L 636.220874 749.529069 
L 624.203698 756.099461 
L 611.909687 763.3779 
L 599.419225 771.368926 
L 586.813876 780.071013 
L 574.175833 789.476533 
L 561.587373 799.571751 
L 549.130308 810.336883 
L 536.885439 821.746176 
L 524.932021 833.768056 
L 513.34724 846.365296 
L 502.205702 859.495243 
L 491.578947 873.110077 
L 481.534978 887.157107 
L 472.13782 901.57911 
L 463.447111 916.314697 
L 455.517715 931.298715 
L 448.399375 946.462676 
L 442.136407 961.735212 
L 436.767421 977.042553 
L 432.325093 992.30902 
L 428.835971 1007.457542 
L 426.320333 1022.41018 
L 424.792078 1037.088654 
L 424.258672 1051.414889 
L 424.721131 1065.311546 
L 426.174057 1078.702564 
L 428.605712 1091.513682 
L 431.998139 1103.672965 
L 436.327326 1115.111305 
L 441.563414 1125.762905 
L 447.67094 1135.565752 
L 454.609125 1144.462053 
L 462.332195 1152.398654 
L 470.789736 1159.327418 
L 479.927084 1165.205583 
L 489.685736 1169.996071 
L 500.0038 1173.66777 
L 510.816453 1176.195767 
L 522.056429 1177.561549 
L 533.654518 1177.753153 
L 545.54008 1176.765274 
L 557.64156 1174.599331 
L 569.887023 1171.263486 
L 582.204671 1166.772613 
L 594.523376 1161.148229 
L 606.77319 1154.418377 
L 618.885859 1146.617458 
L 630.795314 1137.786033 
L 642.438145 1127.970571 
L 653.754063 1117.223164 
L 664.686327 1105.601202 
L 675.182154 1093.167007 
L 685.193088 1079.987445 
L 694.67535 1066.133494 
L 703.590138 1051.679792 
L 711.903907 1036.704159 
L 719.588591 1021.287098 
L 726.621804 1005.511273 
L 732.986979 989.460978 
L 738.673481 973.221594 
L 743.676667 956.879035 
L 747.997902 940.5192 
L 751.644534 924.227411 
L 754.629823 908.087868 
L 756.972827 892.183108 
L 758.698241 876.593474 
L 759.836203 861.396598 
L 760.422051 846.666912 
L 760.496046 832.475167 
L 760.103055 818.887992 
L 759.292206 805.967471 
L 758.116504 793.770758 
L 756.632422 782.349723 
L 754.899464 771.750635 
L 752.979705 762.013883 
L 750.937314 753.173742 
L 748.838054 745.258173 
L 746.74878 738.288677 
L 744.736915 732.280182 
L 742.86993 727.240985 
L 741.214818 723.172733 
L 739.837572 720.070455 
L 738.802668 717.922632 
L 738.172555 716.711319 
L 738.007163 716.412308 
L 738.363425 716.995331 
L 739.294817 718.424311 
L 740.850926 720.657642 
L 743.077041 723.648518 
L 746.013777 727.345289 
L 749.696726 731.691848 
L 754.156149 736.62806 
L 759.416698 742.090199 
L 765.497186 748.011425 
L 772.410389 754.322273 
L 780.162898 760.951158 
L 788.755006 767.824898 
L 798.180649 774.869242 
L 808.427382 782.009406 
L 819.476411 789.170608 
L 831.302657 796.278608 
L 843.874878 803.260231 
L 857.155825 810.043893 
L 871.102445 816.560105 
L 885.666125 822.741965 
L 900.792975 828.525624 
L 916.424154 833.85074 
L 932.496218 838.660895 
L 948.941523 842.903984 
L 965.688638 846.532577 
L 982.662796 849.504245 
L 999.786371 851.781842 
L 1016.979371 853.333759 
L 1034.159955 854.13413 
L 1051.244956 854.162996 
L 1068.150426 853.406433 
L 1084.792179 851.856626 
L 1101.086341 849.511907 
L 1116.949901 846.376743 
L 1132.301255 842.461684 
L 1147.060743 837.783261 
L 1161.151177 832.363847 
L 1174.498347 826.23147 
L 1187.031516 819.419593 
L 1198.683887 811.966844 
L 1209.393048 803.916719 
L 1219.101385 795.317243 
L 1227.756467 786.220601 
L 1235.311394 776.682741 
L 1241.72511 766.762945 
L 1246.962677 756.52338 
L 1250.995509 746.028625 
L 1253.801559 735.345188 
L 1255.365473 724.540997 
L 1255.678684 713.684891 
L 1254.739479 702.8461 
L 1252.553 692.093726 
L 1249.131218 681.496216 
L 1244.49285 671.120852 
L 1238.663233 661.033238 
L 1231.674156 651.296809 
L 1223.563648 641.972346 
L 1214.375722 633.117519 
L 1204.160087 624.786446 
L 1192.971809 617.029281 
L 1180.870954 609.891827 
L 1167.922178 603.415188 
L 1154.194305 597.635444 
L 1139.75987 592.58337 
L 1124.694634 588.284194 
L 1109.077086 584.757387 
L 1092.987924 582.016506 
L 1076.509523 580.069067 
L 1059.725395 578.916475 
L 1042.719638 578.553986 
L 1025.576388 578.970725 
L 1008.379271 580.149736 
L 991.210856 582.06809 
L 974.152127 584.697024 
L 957.281955 588.002135 
L 940.676597 591.9436 
L 924.409209 596.47645 
L 908.549385 601.550877 
L 893.162719 607.112572 
L 878.3104 613.103103 
L 864.048837 619.460322 
L 850.429318 626.118795 
L 837.49771 633.010266 
L 825.294191 640.064137 
L 813.853031 647.207964 
L 803.202406 654.367973 
L 793.364264 661.469587 
L 784.354232 668.437957 
L 776.181564 675.198496 
L 768.84914 681.677423 
L 762.353508 687.802288 
L 756.684967 693.502501 
L 751.827703 698.709848 
L 747.759955 703.358986 
L 744.454235 707.387926 
L 741.87758 710.738494 
L 739.991846 713.35676 
L 738.754034 715.193449 
L 738.116659 716.204313 
L 738.028135 716.350472 
L 738.433202 715.59872 
L 739.273371 713.921791 
L 740.487391 711.298585 
L 742.011736 707.714353 
L 743.781108 703.160838 
L 745.728949 697.63637 
L 747.787962 691.145922 
L 749.890634 683.701111 
L 751.96976 675.320162 
L 753.958968 666.027821 
L 755.793228 655.855229 
L 757.409358 644.839745 
L 758.746508 633.024731 
L 759.746636 620.459292 
L 760.354948 607.197983 
L 760.52033 593.300469 
L 760.195737 578.831157 
L 759.338564 563.858791 
L 757.910974 548.456021 
L 755.880197 532.698939 
L 753.21879 516.666595 
L 749.904852 500.440496 
L 745.922209 484.104075 
L 741.260544 467.742164 
L 735.915495 451.440442 
L 729.888701 435.284883 
L 723.187805 419.361205 
L 715.826419 403.754315 
L 707.824035 388.547758 
L 699.205901 373.823183 
L 690.002848 359.659816 
L 680.251082 346.133948 
L 669.99193 333.318444 
L 659.271548 321.282281 
L 648.140602 310.090106 
L 636.653903 299.801821 
L 624.870019 290.47221 
L 612.850854 282.150593 
L 600.661206 274.880517 
L 588.368297 268.699492 
L 576.041291 263.638763 
L 563.750791 259.723127 
L 551.568323 256.970792 
L 539.565822 255.393282 
L 527.815097 254.995388 
L 516.387311 255.775162 
L 505.352455 257.72396 
L 494.77883 260.826526 
L 484.732541 265.061126 
L 475.277006 270.39972 
L 466.472478 276.808182 
L 458.375596 284.246554 
L 451.038948 292.669344 
L 444.510674 302.025862 
L 438.834095 312.260583 
L 434.047369 323.313552 
L 430.18319 335.120805 
L 427.268522 347.614833 
L 425.324372 360.72505 
L 424.365606 374.378295 
L 424.400805 388.499341 
L 425.432165 403.011422 
L 427.455448 417.836763 
L 430.459965 432.897119 
L 434.42862 448.114314 
L 439.337982 463.410777 
L 445.15842 478.710068 
L 451.854262 493.937399 
L 459.384016 509.020141 
L 467.700615 523.888306 
L 476.751713 538.475019 
L 486.480014 552.716958 
L 496.823638 566.554768 
L 507.716517 579.933448 
L 519.088821 592.802703 
L 530.86742 605.117261 
L 542.976353 616.837152 
L 555.337336 627.927951 
L 567.870275 638.360975 
L 580.493794 648.113441 
L 593.125783 657.16858 
L 605.683936 665.515708 
L 618.086307 673.15025 
L 630.251853 680.073722 
L 642.100983 686.293667 
L 653.556084 691.823545 
L 664.54205 696.682587 
L 674.986781 700.8956 
L 684.821672 704.492735 
L 693.982076 707.509213 
L 702.407739 709.98502 
L 710.043203 711.964563 
L 716.838188 713.496292 
L 722.747927 714.632303 
L 727.733469 715.427897 
L 731.761944 715.941138 
L 734.806786 716.232371 
L 736.847909 716.363734 
L 737.871849 716.398656 
L 737.871849 716.401344 
L 736.847909 716.436266 
L 734.806786 716.567629 
L 731.761944 716.858862 
L 727.733469 717.372103 
L 722.747927 718.167697 
L 716.838188 719.303708 
L 710.043203 720.835437 
L 702.407739 722.81498 
L 693.982076 725.290787 
L 684.821672 728.307265 
L 674.986781 731.9044 
L 664.54205 736.117413 
L 653.556084 740.976455 
L 642.100983 746.506333 
L 630.251853 752.726278 
L 618.086307 759.64975 
L 605.683936 767.284292 
L 593.125783 775.63142 
L 580.493794 784.686559 
L 567.870275 794.439025 
L 555.337336 804.872049 
L 542.976353 815.962848 
L 530.86742 827.682739 
L 519.088821 839.997297 
L 507.716517 852.866552 
L 496.823638 866.245232 
L 486.480014 880.083042 
L 476.751713 894.324981 
L 467.700615 908.911694 
L 459.384016 923.779859 
L 451.854262 938.862601 
L 445.15842 954.089932 
L 439.337982 969.389223 
L 434.42862 984.685686 
L 430.459965 999.902881 
L 427.455448 1014.963237 
L 425.432165 1029.788578 
L 424.400805 1044.300659 
L 424.365606 1058.421705 
L 425.324372 1072.07495 
L 427.268522 1085.185167 
L 430.18319 1097.679195 
L 434.047369 1109.486448 
L 438.834095 1120.539417 
L 444.510674 1130.774138 
L 451.038948 1140.130656 
L 458.375596 1148.553446 
L 466.472478 1155.991818 
L 475.277006 1162.40028 
L 484.732541 1167.738874 
L 494.77883 1171.973474 
L 505.352455 1175.07604 
L 516.387311 1177.024838 
L 527.815097 1177.804612 
L 539.565822 1177.406718 
L 551.568323 1175.829208 
L 563.750791 1173.076873 
L 576.041291 1169.161237 
L 588.368297 1164.100508 
L 600.661206 1157.919483 
L 612.850854 1150.649407 
L 624.870019 1142.32779 
L 636.653903 1132.998179 
L 648.140602 1122.709894 
L 659.271548 1111.517719 
L 669.99193 1099.481556 
L 680.251082 1086.666052 
L 690.002848 1073.140184 
L 699.205901 1058.976817 
L 707.824035 1044.252242 
L 715.826419 1029.045685 
L 723.187805 1013.438795 
L 729.888701 997.515117 
L 735.915495 981.359558 
L 741.260544 965.057836 
L 745.922209 948.695925 
L 749.904852 932.359504 
L 753.21879 916.133405 
L 755.880197 900.101061 
L 757.910974 884.343979 
L 759.338564 868.941209 
L 760.195737 853.968843 
L 760.52033 839.499531 
L 760.354948 825.602017 
L 759.746636 812.340708 
L 758.746508 799.775269 
L 757.409358 787.960255 
L 755.793228 776.944771 
L 753.958968 766.772179 
L 751.96976 757.479838 
L 749.890634 749.098889 
L 747.787962 741.654078 
L 745.728949 735.16363 
L 743.781108 729.639162 
L 742.011736 725.085647 
L 740.487391 721.501415 
L 739.273371 718.878209 
L 738.433202 717.20128 
L 738.028135 716.449528 
L 738.116659 716.595687 
L 738.754034 717.606551 
L 739.991846 719.44324 
L 741.87758 722.061506 
L 744.454235 725.412074 
L 747.759955 729.441014 
L 751.827703 734.090152 
L 756.684967 739.297499 
L 762.353508 744.997712 
L 768.84914 751.122577 
L 776.181564 757.601504 
L 784.354232 764.362043 
L 793.364264 771.330413 
L 803.202406 778.432027 
L 813.853031 785.592036 
L 825.294191 792.735863 
L 837.49771 799.789734 
L 850.429318 806.681205 
L 864.048837 813.339678 
L 878.3104 819.696897 
L 893.162719 825.687428 
L 908.549385 831.249123 
L 924.409209 836.32355 
L 940.676597 840.8564 
L 957.281955 844.797865 
L 974.152127 848.102976 
L 991.210856 850.73191 
L 1008.379271 852.650264 
L 1025.576388 853.829275 
L 1042.719638 854.246014 
L 1059.725395 853.883525 
L 1076.509523 852.730933 
L 1092.987924 850.783494 
L 1109.077086 848.042613 
L 1124.694634 844.515806 
L 1139.75987 840.21663 
L 1154.194305 835.164556 
L 1167.922178 829.384812 
L 1180.870954 822.908173 
L 1192.971809 815.770719 
L 1204.160087 808.013554 
L 1214.375722 799.682481 
L 1223.563648 790.827654 
L 1231.674156 781.503191 
L 1238.663233 771.766762 
L 1244.49285 761.679148 
L 1249.131218 751.303784 
L 1252.553 740.706274 
L 1254.739479 729.9539 
L 1255.678684 719.115109 
L 1255.365473 708.259003 
L 1253.801559 697.454812 
L 1250.995509 686.771375 
L 1246.962677 676.27662 
L 1241.72511 666.037055 
L 1235.311394 656.117259 
L 1227.756467 646.579399 
L 1219.101385 637.482757 
L 1209.393048 628.883281 
L 1198.683887 620.833156 
L 1187.031516 613.380407 
L 1174.498347 606.56853 
L 1161.151177 600.436153 
L 1147.060743 595.016739 
L 1132.301255 590.338316 
L 1116.949901 586.423257 
L 1101.086341 583.288093 
L 1084.792179 580.943374 
L 1068.150426 579.393567 
L 1051.244956 578.637004 
L 1034.159955 578.66587 
L 1016.979371 579.466241 
L 999.786371 581.018158 
L 982.662796 583.295755 
L 965.688638 586.267423 
L 948.941523 589.896016 
L 932.496218 594.139105 
L 916.424154 598.94926 
L 900.792975 604.274376 
L 885.666125 610.058035 
L 871.102445 616.239895 
L 857.155825 622.756107 
L 843.874878 629.539769 
L 831.302657 636.521392 
L 819.476411 643.629392 
L 808.427382 650.790594 
L 798.180649 657.930758 
L 788.755006 664.975102 
L 780.162898 671.848842 
L 772.410389 678.477727 
L 765.497186 684.788575 
L 759.416698 690.709801 
L 754.156149 696.17194 
L 749.696726 701.108152 
L 746.013777 705.454711 
L 743.077041 709.151482 
L 740.850926 712.142358 
L 739.294817 714.375689 
L 738.363425 715.804669 
L 738.007163 716.387692 
L 738.172555 716.088681 
L 738.802668 714.877368 
L 739.837572 712.729545 
L 741.214818 709.627267 
L 742.86993 705.559015 
L 744.736915 700.519818 
L 746.74878 694.511323 
L 748.838054 687.541827 
L 750.937314 679.626258 
L 752.979705 670.786117 
L 754.899464 661.049365 
L 756.632422 650.450277 
L 758.116504 639.029242 
L 759.292206 626.832529 
L 760.103055 613.912008 
L 760.496046 600.324833 
L 760.422051 586.133088 
L 759.836203 571.403402 
L 758.698241 556.206526 
L 756.972827 540.616892 
L 754.629823 524.712132 
L 751.644534 508.572589 
L 747.997902 492.2808 
L 743.676667 475.920965 
L 738.673481 459.578406 
L 732.986979 443.339022 
L 726.621804 427.288727 
L 719.588591 411.512902 
L 711.903907 396.095841 
L 703.590138 381.120208 
L 694.67535 366.666506 
L 685.193088 352.812555 
L 675.182154 339.632993 
L 664.686327 327.198798 
L 653.754063 315.576836 
L 642.438145 304.829429 
L 630.795314 295.013967 
L 618.885859 286.182542 
L 606.77319 278.381623 
L 594.523376 271.651771 
L 582.204671 266.027387 
L 569.887023 261.536514 
L 557.64156 258.200669 
L 545.54008 256.034726 
L 533.654518 255.046847 
L 522.056429 255.238451 
L 510.816453 256.604233 
L 500.0038 259.13223 
L 489.685736 262.803929 
L 479.927084 267.594417 
L 470.789736 273.472582 
L 462.332195 280.401346 
L 454.609125 288.337947 
L 447.67094 297.234248 
L 441.563414 307.037095 
L 436.327326 317.688695 
L 431.998139 329.127035 
L 428.605712 341.286318 
L 426.174057 354.097436 
L 424.721131 367.488454 
L 424.258672 381.385111 
L 424.792078 395.711346 
L 426.320333 410.38982 
L 428.835971 425.342458 
L 432.325093 440.49098 
L 436.767421 455.757447 
L 442.136407 471.064788 
L 448.399375 486.337324 
L 455.517715 501.501285 
L 463.447111 516.485303 
L 472.13782 531.22089 
L 481.534978 545.642893 
L 491.578947 559.689923 
L 502.205702 573.304757 
L 513.34724 586.434704 
L 524.932021 599.031944 
L 536.885439 611.053824 
L 549.130308 622.463117 
L 561.587373 633.228249 
L 574.175833 643.323467 
L 586.813876 652.728987 
L 599.419225 661.431074 
L 611.909687 669.4221 
L 624.203698 676.700539 
L 636.220874 683.270931 
L 647.882546 689.143795 
L 659.112292 694.335498 
L 669.836445 698.868085 
L 679.984595 702.769066 
L 689.490059 706.071165 
L 698.290333 708.812024 
L 706.327513 711.033887 
L 713.548686 712.783229 
L 719.906287 714.110376 
L 725.358422 715.069082 
L 729.869151 715.716088 
L 733.408728 716.110658 
L 735.953811 716.314096 
L 737.487607 716.389249 
L 738 716.4 
z
" style="fill:#3f59b0;stroke:#191970;stroke-linejoin:miter;stroke-width:2;"/>
   </g>
   <g id="matplotlib.axis_1">
    <g id="xtick_1">
     <g id="line2d_1">
      <path clip-path="url(#pf9b4028670)" d="M 738 716.4 
L 1281.6 716.4 
" style="fill:none;stroke:#191970;stroke-linecap:square;stroke-opacity:0.5;stroke-width:10;"/>
     </g>
     <g id="text_1">
      <!-- 0° -->
      <defs>
       <path d="M 31.78125 66.40625 
Q 24.171875 66.40625 20.328125 58.90625 
Q 16.5 51.421875 16.5 36.375 
Q 16.5 21.390625 20.328125 13.890625 
Q 24.171875 6.390625 31.78125 6.390625 
Q 39.453125 6.390625 43.28125 13.890625 
Q 47.125 21.390625 47.125 36.375 
Q 47.125 51.421875 43.28125 58.90625 
Q 39.453125 66.40625 31.78125 66.40625 
z
M 31.78125 74.21875 
Q 44.046875 74.21875 50.515625 64.515625 
Q 56.984375 54.828125 56.984375 36.375 
Q 56.984375 17.96875 50.515625 8.265625 
Q 44.046875 -1.421875 31.78125 -1.421875 
Q 19.53125 -1.421875 13.0625 8.265625 
Q 6.59375 17.96875 6.59375 36.375 
Q 6.59375 54.828125 13.0625 64.515625 
Q 19.53125 74.21875 31.78125 74.21875 
z
" id="DejaVuSans-48"/>
       <path d="M 25 67.921875 
Q 21.09375 67.921875 18.40625 65.203125 
Q 15.71875 62.5 15.71875 58.59375 
Q 15.71875 54.734375 18.40625 52.078125 
Q 21.09375 49.421875 25 49.421875 
Q 28.90625 49.421875 31.59375 52.078125 
Q 34.28125 54.734375 34.28125 58.59375 
Q 34.28125 62.453125 31.5625 65.1875 
Q 28.859375 67.921875 25 67.921875 
z
M 25 74.21875 
Q 28.125 74.21875 31 73.015625 
Q 33.890625 71.828125 35.984375 69.578125 
Q 38.234375 67.390625 39.359375 64.59375 
Q 40.484375 61.8125 40.484375 58.59375 
Q 40.484375 52.15625 35.96875 47.6875 
Q 31.453125 43.21875 24.90625 43.21875 
Q 18.3125 43.21875 13.90625 47.609375 
Q 9.515625 52 9.515625 58.59375 
Q 9.515625 65.140625 14 69.671875 
Q 18.5 74.21875 25 74.21875 
z
" id="DejaVuSans-176"/>
      </defs>
      <g style="fill:#191970;" transform="translate(1286.41875 719.159375)scale(0.1 -0.1)">
       <use xlink:href="#DejaVuSans-48"/>
       <use x="63.623047" xlink:href="#DejaVuSans-176"/>
      </g>
     </g>
    </g>
    <g id="xtick_2">
     <g id="line2d_2">
      <path clip-path="url(#pf9b4028670)" d="M 738 716.4 
L 1009.8 245.628591 
" style="fill:none;stroke:#191970;stroke-linecap:square;stroke-opacity:0.5;stroke-width:10;"/>
     </g>
     <g id="text_2">
      <!-- 60° -->
      <defs>
       <path d="M 33.015625 40.375 
Q 26.375 40.375 22.484375 35.828125 
Q 18.609375 31.296875 18.609375 23.390625 
Q 18.609375 15.53125 22.484375 10.953125 
Q 26.375 6.390625 33.015625 6.390625 
Q 39.65625 6.390625 43.53125 10.953125 
Q 47.40625 15.53125 47.40625 23.390625 
Q 47.40625 31.296875 43.53125 35.828125 
Q 39.65625 40.375 33.015625 40.375 
z
M 52.59375 71.296875 
L 52.59375 62.3125 
Q 48.875 64.0625 45.09375 64.984375 
Q 41.3125 65.921875 37.59375 65.921875 
Q 27.828125 65.921875 22.671875 59.328125 
Q 17.53125 52.734375 16.796875 39.40625 
Q 19.671875 43.65625 24.015625 45.921875 
Q 28.375 48.1875 33.59375 48.1875 
Q 44.578125 48.1875 50.953125 41.515625 
Q 57.328125 34.859375 57.328125 23.390625 
Q 57.328125 12.15625 50.6875 5.359375 
Q 44.046875 -1.421875 33.015625 -1.421875 
Q 20.359375 -1.421875 13.671875 8.265625 
Q 6.984375 17.96875 6.984375 36.375 
Q 6.984375 53.65625 15.1875 63.9375 
Q 23.390625 74.21875 37.203125 74.21875 
Q 40.921875 74.21875 44.703125 73.484375 
Q 48.484375 72.75 52.59375 71.296875 
z
" id="DejaVuSans-54"/>
      </defs>
      <g style="fill:#191970;" transform="translate(1006.1875 239.294699)scale(0.1 -0.1)">
       <use xlink:href="#DejaVuSans-54"/>
       <use x="63.623047" xlink:href="#DejaVuSans-48"/>
       <use x="127.246094" xlink:href="#DejaVuSans-176"/>
      </g>
     </g>
    </g>
    <g id="xtick_3">
     <g id="line2d_3">
      <path clip-path="url(#pf9b4028670)" d="M 738 716.4 
L 466.2 245.628591 
" style="fill:none;stroke:#191970;stroke-linecap:square;stroke-opacity:0.5;stroke-width:10;"/>
     </g>
     <g id="text_3">
      <!-- 120° -->
      <defs>
       <path d="M 12.40625 8.296875 
L 28.515625 8.296875 
L 28.515625 63.921875 
L 10.984375 60.40625 
L 10.984375 69.390625 
L 28.421875 72.90625 
L 38.28125 72.90625 
L 38.28125 8.296875 
L 54.390625 8.296875 
L 54.390625 0 
L 12.40625 0 
z
" id="DejaVuSans-49"/>
       <path d="M 19.1875 8.296875 
L 53.609375 8.296875 
L 53.609375 0 
L 7.328125 0 
L 7.328125 8.296875 
Q 12.9375 14.109375 22.625 23.890625 
Q 32.328125 33.6875 34.8125 36.53125 
Q 39.546875 41.84375 41.421875 45.53125 
Q 43.3125 49.21875 43.3125 52.78125 
Q 43.3125 58.59375 39.234375 62.25 
Q 35.15625 65.921875 28.609375 65.921875 
Q 23.96875 65.921875 18.8125 64.3125 
Q 13.671875 62.703125 7.8125 59.421875 
L 7.8125 69.390625 
Q 13.765625 71.78125 18.9375 73 
Q 24.125 74.21875 28.421875 74.21875 
Q 39.75 74.21875 46.484375 68.546875 
Q 53.21875 62.890625 53.21875 53.421875 
Q 53.21875 48.921875 51.53125 44.890625 
Q 49.859375 40.875 45.40625 35.40625 
Q 44.1875 33.984375 37.640625 27.21875 
Q 31.109375 20.453125 19.1875 8.296875 
z
" id="DejaVuSans-50"/>
      </defs>
      <g style="fill:#191970;" transform="translate(448.90625 239.294699)scale(0.1 -0.1)">
       <use xlink:href="#DejaVuSans-49"/>
       <use x="63.623047" xlink:href="#DejaVuSans-50"/>
       <use x="127.246094" xlink:href="#DejaVuSans-48"/>
       <use x="190.869141" xlink:href="#DejaVuSans-176"/>
      </g>
     </g>
    </g>
    <g id="xtick_4">
     <g id="line2d_4">
      <path clip-path="url(#pf9b4028670)" d="M 738 716.4 
L 194.4 716.4 
" style="fill:none;stroke:#191970;stroke-linecap:square;stroke-opacity:0.5;stroke-width:10;"/>
     </g>
     <g id="text_4">
      <!-- 180° -->
      <defs>
       <path d="M 31.78125 34.625 
Q 24.75 34.625 20.71875 30.859375 
Q 16.703125 27.09375 16.703125 20.515625 
Q 16.703125 13.921875 20.71875 10.15625 
Q 24.75 6.390625 31.78125 6.390625 
Q 38.8125 6.390625 42.859375 10.171875 
Q 46.921875 13.96875 46.921875 20.515625 
Q 46.921875 27.09375 42.890625 30.859375 
Q 38.875 34.625 31.78125 34.625 
z
M 21.921875 38.8125 
Q 15.578125 40.375 12.03125 44.71875 
Q 8.5 49.078125 8.5 55.328125 
Q 8.5 64.0625 14.71875 69.140625 
Q 20.953125 74.21875 31.78125 74.21875 
Q 42.671875 74.21875 48.875 69.140625 
Q 55.078125 64.0625 55.078125 55.328125 
Q 55.078125 49.078125 51.53125 44.71875 
Q 48 40.375 41.703125 38.8125 
Q 48.828125 37.15625 52.796875 32.3125 
Q 56.78125 27.484375 56.78125 20.515625 
Q 56.78125 9.90625 50.3125 4.234375 
Q 43.84375 -1.421875 31.78125 -1.421875 
Q 19.734375 -1.421875 13.25 4.234375 
Q 6.78125 9.90625 6.78125 20.515625 
Q 6.78125 27.484375 10.78125 32.3125 
Q 14.796875 37.15625 21.921875 38.8125 
z
M 18.3125 54.390625 
Q 18.3125 48.734375 21.84375 45.5625 
Q 25.390625 42.390625 31.78125 42.390625 
Q 38.140625 42.390625 41.71875 45.5625 
Q 45.3125 48.734375 45.3125 54.390625 
Q 45.3125 60.0625 41.71875 63.234375 
Q 38.140625 66.40625 31.78125 66.40625 
Q 25.390625 66.40625 21.84375 63.234375 
Q 18.3125 60.0625 18.3125 54.390625 
z
" id="DejaVuSans-56"/>
      </defs>
      <g style="fill:#191970;" transform="translate(171.85625 719.159375)scale(0.1 -0.1)">
       <use xlink:href="#DejaVuSans-49"/>
       <use x="63.623047" xlink:href="#DejaVuSans-56"/>
       <use x="127.246094" xlink:href="#DejaVuSans-48"/>
       <use x="190.869141" xlink:href="#DejaVuSans-176"/>
      </g>
     </g>
    </g>
    <g id="xtick_5">
     <g id="line2d_5">
      <path clip-path="url(#pf9b4028670)" d="M 738 716.4 
L 466.2 1187.171409 
" style="fill:none;stroke:#191970;stroke-linecap:square;stroke-opacity:0.5;stroke-width:10;"/>
     </g>
     <g id="text_5">
      <!-- 240° -->
      <defs>
       <path d="M 37.796875 64.3125 
L 12.890625 25.390625 
L 37.796875 25.390625 
z
M 35.203125 72.90625 
L 47.609375 72.90625 
L 47.609375 25.390625 
L 58.015625 25.390625 
L 58.015625 17.1875 
L 47.609375 17.1875 
L 47.609375 0 
L 37.796875 0 
L 37.796875 17.1875 
L 4.890625 17.1875 
L 4.890625 26.703125 
z
" id="DejaVuSans-52"/>
      </defs>
      <g style="fill:#191970;" transform="translate(448.90625 1199.024051)scale(0.1 -0.1)">
       <use xlink:href="#DejaVuSans-50"/>
       <use x="63.623047" xlink:href="#DejaVuSans-52"/>
       <use x="127.246094" xlink:href="#DejaVuSans-48"/>
       <use x="190.869141" xlink:href="#DejaVuSans-176"/>
      </g>
     </g>
    </g>
    <g id="xtick_6">
     <g id="line2d_6">
      <path clip-path="url(#pf9b4028670)" d="M 738 716.4 
L 1009.8 1187.171409 
" style="fill:none;stroke:#191970;stroke-linecap:square;stroke-opacity:0.5;stroke-width:10;"/>
     </g>
     <g id="text_6">
      <!-- 300° -->
      <defs>
       <path d="M 40.578125 39.3125 
Q 47.65625 37.796875 51.625 33 
Q 55.609375 28.21875 55.609375 21.1875 
Q 55.609375 10.40625 48.1875 4.484375 
Q 40.765625 -1.421875 27.09375 -1.421875 
Q 22.515625 -1.421875 17.65625 -0.515625 
Q 12.796875 0.390625 7.625 2.203125 
L 7.625 11.71875 
Q 11.71875 9.328125 16.59375 8.109375 
Q 21.484375 6.890625 26.8125 6.890625 
Q 36.078125 6.890625 40.9375 10.546875 
Q 45.796875 14.203125 45.796875 21.1875 
Q 45.796875 27.640625 41.28125 31.265625 
Q 36.765625 34.90625 28.71875 34.90625 
L 20.21875 34.90625 
L 20.21875 43.015625 
L 29.109375 43.015625 
Q 36.375 43.015625 40.234375 45.921875 
Q 44.09375 48.828125 44.09375 54.296875 
Q 44.09375 59.90625 40.109375 62.90625 
Q 36.140625 65.921875 28.71875 65.921875 
Q 24.65625 65.921875 20.015625 65.03125 
Q 15.375 64.15625 9.8125 62.3125 
L 9.8125 71.09375 
Q 15.4375 72.65625 20.34375 73.4375 
Q 25.25 74.21875 29.59375 74.21875 
Q 40.828125 74.21875 47.359375 69.109375 
Q 53.90625 64.015625 53.90625 55.328125 
Q 53.90625 49.265625 50.4375 45.09375 
Q 46.96875 40.921875 40.578125 39.3125 
z
" id="DejaVuSans-51"/>
      </defs>
      <g style="fill:#191970;" transform="translate(1003.00625 1199.024051)scale(0.1 -0.1)">
       <use xlink:href="#DejaVuSans-51"/>
       <use x="63.623047" xlink:href="#DejaVuSans-48"/>
       <use x="127.246094" xlink:href="#DejaVuSans-48"/>
       <use x="190.869141" xlink:href="#DejaVuSans-176"/>
      </g>
     </g>
    </g>
   </g>
   <g id="matplotlib.axis_2">
    <g id="ytick_1">
     <g id="line2d_7">
      <path clip-path="url(#pf9b4028670)" d="M 802.714731 716.4 
L 802.557089 711.885729 
L 802.084931 707.39345 
L 801.300559 702.945051 
L 800.207792 698.562203 
L 798.811955 694.266259 
L 797.119848 690.078148 
L 795.139716 686.018274 
L 792.881204 682.106417 
L 790.355317 678.361636 
L 787.57436 674.802173 
L 784.551881 671.445371 
L 781.302607 668.307583 
L 777.842367 665.404096 
L 774.188018 662.749057 
L 770.357365 660.355399 
L 766.369071 658.234785 
L 762.242565 656.397547 
L 757.997952 654.852634 
L 753.65591 653.607573 
L 749.237595 652.668431 
L 744.764531 652.039783 
L 740.258512 651.724692 
L 735.741488 651.724692 
L 731.235469 652.039783 
L 726.762405 652.668431 
L 722.34409 653.607573 
L 718.002048 654.852634 
L 713.757435 656.397547 
L 709.630929 658.234785 
L 705.642635 660.355399 
L 701.811982 662.749057 
L 698.157633 665.404096 
L 694.697393 668.307583 
L 691.448119 671.445371 
L 688.42564 674.802173 
L 685.644683 678.361636 
L 683.118796 682.106417 
L 680.860284 686.018274 
L 678.880152 690.078148 
L 677.188045 694.266259 
L 675.792208 698.562203 
L 674.699441 702.945051 
L 673.915069 707.39345 
L 673.442911 711.885729 
L 673.285269 716.4 
L 673.442911 720.914271 
L 673.915069 725.40655 
L 674.699441 729.854949 
L 675.792208 734.237797 
L 677.188045 738.533741 
L 678.880152 742.721852 
L 680.860284 746.781726 
L 683.118796 750.693583 
L 685.644683 754.438364 
L 688.42564 757.997827 
L 691.448119 761.354629 
L 694.697393 764.492417 
L 698.157633 767.395904 
L 701.811982 770.050943 
L 705.642635 772.444601 
L 709.630929 774.565215 
L 713.757435 776.402453 
L 718.002048 777.947366 
L 722.34409 779.192427 
L 726.762405 780.131569 
L 731.235469 780.760217 
L 735.741488 781.075308 
L 740.258512 781.075308 
L 744.764531 780.760217 
L 749.237595 780.131569 
L 753.65591 779.192427 
L 757.997952 777.947366 
L 762.242565 776.402453 
L 766.369071 774.565215 
L 770.357365 772.444601 
L 774.188018 770.050943 
L 777.842367 767.395904 
L 781.302607 764.492417 
L 784.551881 761.354629 
L 787.57436 757.997827 
L 790.355317 754.438364 
L 792.881204 750.693583 
L 795.139716 746.781726 
L 797.119848 742.721852 
L 798.811955 738.533741 
L 800.207792 734.237797 
L 801.300559 729.854949 
L 802.084931 725.40655 
L 802.557089 720.914271 
L 802.714731 716.4 
L 802.714731 716.4 
" style="fill:none;stroke:#191970;stroke-linecap:square;stroke-opacity:0.5;stroke-width:0.8;"/>
     </g>
     <g id="text_7">
      <!-- 0.25 -->
      <defs>
       <path d="M 10.6875 12.40625 
L 21 12.40625 
L 21 0 
L 10.6875 0 
z
" id="DejaVuSans-46"/>
       <path d="M 10.796875 72.90625 
L 49.515625 72.90625 
L 49.515625 64.59375 
L 19.828125 64.59375 
L 19.828125 46.734375 
Q 21.96875 47.46875 24.109375 47.828125 
Q 26.265625 48.1875 28.421875 48.1875 
Q 40.625 48.1875 47.75 41.5 
Q 54.890625 34.8125 54.890625 23.390625 
Q 54.890625 11.625 47.5625 5.09375 
Q 40.234375 -1.421875 26.90625 -1.421875 
Q 22.3125 -1.421875 17.546875 -0.640625 
Q 12.796875 0.140625 7.71875 1.703125 
L 7.71875 11.625 
Q 12.109375 9.234375 16.796875 8.0625 
Q 21.484375 6.890625 26.703125 6.890625 
Q 35.15625 6.890625 40.078125 11.328125 
Q 45.015625 15.765625 45.015625 23.390625 
Q 45.015625 31 40.078125 35.4375 
Q 35.15625 39.890625 26.703125 39.890625 
Q 22.75 39.890625 18.8125 39.015625 
Q 14.890625 38.140625 10.796875 36.28125 
z
" id="DejaVuSans-53"/>
      </defs>
      <g style="fill:#191970;" transform="translate(797.788615 689.555057)scale(0.1 -0.1)">
       <use xlink:href="#DejaVuSans-48"/>
       <use x="63.623047" xlink:href="#DejaVuSans-46"/>
       <use x="95.410156" xlink:href="#DejaVuSans-50"/>
       <use x="159.033203" xlink:href="#DejaVuSans-53"/>
      </g>
     </g>
    </g>
    <g id="ytick_2">
     <g id="line2d_8">
      <path clip-path="url(#pf9b4028670)" d="M 867.429461 716.4 
L 867.350617 711.882977 
L 867.114178 707.371457 
L 866.720433 702.870937 
L 866.169863 698.3869 
L 865.463137 693.92481 
L 864.601117 689.490102 
L 863.584853 685.088179 
L 862.415584 680.724405 
L 861.094733 676.404097 
L 859.62391 672.132517 
L 858.004907 667.91487 
L 856.239697 663.756295 
L 854.330429 659.661859 
L 852.279431 655.636548 
L 850.089202 651.685269 
L 847.762408 647.812835 
L 845.301887 644.023964 
L 842.710634 640.323271 
L 839.991807 636.715267 
L 837.14872 633.204346 
L 834.184835 629.794786 
L 831.103763 626.490741 
L 827.909259 623.296237 
L 824.605214 620.215165 
L 821.195654 617.25128 
L 817.684733 614.408193 
L 814.076729 611.689366 
L 810.376036 609.098113 
L 806.587165 606.637592 
L 802.714731 604.310798 
L 798.763452 602.120569 
L 794.738141 600.069571 
L 790.643705 598.160303 
L 786.48513 596.395093 
L 782.267483 594.77609 
L 777.995903 593.305267 
L 773.675595 591.984416 
L 769.311821 590.815147 
L 764.909898 589.798883 
L 760.47519 588.936863 
L 756.0131 588.230137 
L 751.529063 587.679567 
L 747.028543 587.285822 
L 742.517023 587.049383 
L 738 586.970539 
L 733.482977 587.049383 
L 728.971457 587.285822 
L 724.470937 587.679567 
L 719.9869 588.230137 
L 715.52481 588.936863 
L 711.090102 589.798883 
L 706.688179 590.815147 
L 702.324405 591.984416 
L 698.004097 593.305267 
L 693.732517 594.77609 
L 689.51487 596.395093 
L 685.356295 598.160303 
L 681.261859 600.069571 
L 677.236548 602.120569 
L 673.285269 604.310798 
L 669.412835 606.637592 
L 665.623964 609.098113 
L 661.923271 611.689366 
L 658.315267 614.408193 
L 654.804346 617.25128 
L 651.394786 620.215165 
L 648.090741 623.296237 
L 644.896237 626.490741 
L 641.815165 629.794786 
L 638.85128 633.204346 
L 636.008193 636.715267 
L 633.289366 640.323271 
L 630.698113 644.023964 
L 628.237592 647.812835 
L 625.910798 651.685269 
L 623.720569 655.636548 
L 621.669571 659.661859 
L 619.760303 663.756295 
L 617.995093 667.91487 
L 616.37609 672.132517 
L 614.905267 676.404097 
L 613.584416 680.724405 
L 612.415147 685.088179 
L 611.398883 689.490102 
L 610.536863 693.92481 
L 609.830137 698.3869 
L 609.279567 702.870937 
L 608.885822 707.371457 
L 608.649383 711.882977 
L 608.570539 716.4 
L 608.649383 720.917023 
L 608.885822 725.428543 
L 609.279567 729.929063 
L 609.830137 734.4131 
L 610.536863 738.87519 
L 611.398883 743.309898 
L 612.415147 747.711821 
L 613.584416 752.075595 
L 614.905267 756.395903 
L 616.37609 760.667483 
L 617.995093 764.88513 
L 619.760303 769.043705 
L 621.669571 773.138141 
L 623.720569 777.163452 
L 625.910798 781.114731 
L 628.237592 784.987165 
L 630.698113 788.776036 
L 633.289366 792.476729 
L 636.008193 796.084733 
L 638.85128 799.595654 
L 641.815165 803.005214 
L 644.896237 806.309259 
L 648.090741 809.503763 
L 651.394786 812.584835 
L 654.804346 815.54872 
L 658.315267 818.391807 
L 661.923271 821.110634 
L 665.623964 823.701887 
L 669.412835 826.162408 
L 673.285269 828.489202 
L 677.236548 830.679431 
L 681.261859 832.730429 
L 685.356295 834.639697 
L 689.51487 836.404907 
L 693.732517 838.02391 
L 698.004097 839.494733 
L 702.324405 840.815584 
L 706.688179 841.984853 
L 711.090102 843.001117 
L 715.52481 843.863137 
L 719.9869 844.569863 
L 724.470937 845.120433 
L 728.971457 845.514178 
L 733.482977 845.750617 
L 738 845.829461 
L 742.517023 845.750617 
L 747.028543 845.514178 
L 751.529063 845.120433 
L 756.0131 844.569863 
L 760.47519 843.863137 
L 764.909898 843.001117 
L 769.311821 841.984853 
L 773.675595 840.815584 
L 777.995903 839.494733 
L 782.267483 838.02391 
L 786.48513 836.404907 
L 790.643705 834.639697 
L 794.738141 832.730429 
L 798.763452 830.679431 
L 802.714731 828.489202 
L 806.587165 826.162408 
L 810.376036 823.701887 
L 814.076729 821.110634 
L 817.684733 818.391807 
L 821.195654 815.54872 
L 824.605214 812.584835 
L 827.909259 809.503763 
L 831.103763 806.309259 
L 834.184835 803.005214 
L 837.14872 799.595654 
L 839.991807 796.084733 
L 842.710634 792.476729 
L 845.301887 788.776036 
L 847.762408 784.987165 
L 850.089202 781.114731 
L 852.279431 777.163452 
L 854.330429 773.138141 
L 856.239697 769.043705 
L 858.004907 764.88513 
L 859.62391 760.667483 
L 861.094733 756.395903 
L 862.415584 752.075595 
L 863.584853 747.711821 
L 864.601117 743.309898 
L 865.463137 738.87519 
L 866.169863 734.4131 
L 866.720433 729.929063 
L 867.114178 725.428543 
L 867.350617 720.917023 
L 867.429461 716.4 
L 867.429461 716.4 
" style="fill:none;stroke:#191970;stroke-linecap:square;stroke-opacity:0.5;stroke-width:0.8;"/>
     </g>
     <g id="text_8">
      <!-- 0.50 -->
      <g style="fill:#191970;" transform="translate(857.57723 664.789802)scale(0.1 -0.1)">
       <use xlink:href="#DejaVuSans-48"/>
       <use x="63.623047" xlink:href="#DejaVuSans-46"/>
       <use x="95.410156" xlink:href="#DejaVuSans-53"/>
       <use x="159.033203" xlink:href="#DejaVuSans-48"/>
      </g>
     </g>
    </g>
    <g id="ytick_3">
     <g id="line2d_9">
      <path clip-path="url(#pf9b4028670)" d="M 932.144192 716.4 
L 932.025925 709.624465 
L 931.671267 702.857186 
L 931.08065 696.106406 
L 930.254794 689.380351 
L 929.194706 682.687215 
L 927.901676 676.035153 
L 926.37728 669.432269 
L 924.623375 662.886608 
L 922.642099 656.406145 
L 920.435865 649.998776 
L 918.00736 643.672306 
L 915.359545 637.434443 
L 912.495644 631.292788 
L 909.419147 625.254823 
L 906.133802 619.327904 
L 902.643613 613.519252 
L 898.95283 607.835945 
L 895.065951 602.284907 
L 890.987711 596.8729 
L 886.72308 591.606519 
L 882.277252 586.492179 
L 877.655644 581.536112 
L 872.863888 576.744356 
L 867.907821 572.122748 
L 862.793481 567.67692 
L 857.5271 563.412289 
L 852.115093 559.334049 
L 846.564055 555.44717 
L 840.880748 551.756387 
L 835.072096 548.266198 
L 829.145177 544.980853 
L 823.107212 541.904356 
L 816.965557 539.040455 
L 810.727694 536.39264 
L 804.401224 533.964135 
L 797.993855 531.757901 
L 791.513392 529.776625 
L 784.967731 528.02272 
L 778.364847 526.498324 
L 771.712785 525.205294 
L 765.019649 524.145206 
L 758.293594 523.31935 
L 751.542814 522.728733 
L 744.775535 522.374075 
L 738 522.255808 
L 731.224465 522.374075 
L 724.457186 522.728733 
L 717.706406 523.31935 
L 710.980351 524.145206 
L 704.287215 525.205294 
L 697.635153 526.498324 
L 691.032269 528.02272 
L 684.486608 529.776625 
L 678.006145 531.757901 
L 671.598776 533.964135 
L 665.272306 536.39264 
L 659.034443 539.040455 
L 652.892788 541.904356 
L 646.854823 544.980853 
L 640.927904 548.266198 
L 635.119252 551.756387 
L 629.435945 555.44717 
L 623.884907 559.334049 
L 618.4729 563.412289 
L 613.206519 567.67692 
L 608.092179 572.122748 
L 603.136112 576.744356 
L 598.344356 581.536112 
L 593.722748 586.492179 
L 589.27692 591.606519 
L 585.012289 596.8729 
L 580.934049 602.284907 
L 577.04717 607.835945 
L 573.356387 613.519252 
L 569.866198 619.327904 
L 566.580853 625.254823 
L 563.504356 631.292788 
L 560.640455 637.434443 
L 557.99264 643.672306 
L 555.564135 649.998776 
L 553.357901 656.406145 
L 551.376625 662.886608 
L 549.62272 669.432269 
L 548.098324 676.035153 
L 546.805294 682.687215 
L 545.745206 689.380351 
L 544.91935 696.106406 
L 544.328733 702.857186 
L 543.974075 709.624465 
L 543.855808 716.4 
L 543.974075 723.175535 
L 544.328733 729.942814 
L 544.91935 736.693594 
L 545.745206 743.419649 
L 546.805294 750.112785 
L 548.098324 756.764847 
L 549.62272 763.367731 
L 551.376625 769.913392 
L 553.357901 776.393855 
L 555.564135 782.801224 
L 557.99264 789.127694 
L 560.640455 795.365557 
L 563.504356 801.507212 
L 566.580853 807.545177 
L 569.866198 813.472096 
L 573.356387 819.280748 
L 577.04717 824.964055 
L 580.934049 830.515093 
L 585.012289 835.9271 
L 589.27692 841.193481 
L 593.722748 846.307821 
L 598.344356 851.263888 
L 603.136112 856.055644 
L 608.092179 860.677252 
L 613.206519 865.12308 
L 618.4729 869.387711 
L 623.884907 873.465951 
L 629.435945 877.35283 
L 635.119252 881.043613 
L 640.927904 884.533802 
L 646.854823 887.819147 
L 652.892788 890.895644 
L 659.034443 893.759545 
L 665.272306 896.40736 
L 671.598776 898.835865 
L 678.006145 901.042099 
L 684.486608 903.023375 
L 691.032269 904.77728 
L 697.635153 906.301676 
L 704.287215 907.594706 
L 710.980351 908.654794 
L 717.706406 909.48065 
L 724.457186 910.071267 
L 731.224465 910.425925 
L 738 910.544192 
L 744.775535 910.425925 
L 751.542814 910.071267 
L 758.293594 909.48065 
L 765.019649 908.654794 
L 771.712785 907.594706 
L 778.364847 906.301676 
L 784.967731 904.77728 
L 791.513392 903.023375 
L 797.993855 901.042099 
L 804.401224 898.835865 
L 810.727694 896.40736 
L 816.965557 893.759545 
L 823.107212 890.895644 
L 829.145177 887.819147 
L 835.072096 884.533802 
L 840.880748 881.043613 
L 846.564055 877.35283 
L 852.115093 873.465951 
L 857.5271 869.387711 
L 862.793481 865.12308 
L 867.907821 860.677252 
L 872.863888 856.055644 
L 877.655644 851.263888 
L 882.277252 846.307821 
L 886.72308 841.193481 
L 890.987711 835.9271 
L 895.065951 830.515093 
L 898.95283 824.964055 
L 902.643613 819.280748 
L 906.133802 813.472096 
L 909.419147 807.545177 
L 912.495644 801.507212 
L 915.359545 795.365557 
L 918.00736 789.127694 
L 920.435865 782.801224 
L 922.642099 776.393855 
L 924.623375 769.913392 
L 926.37728 763.367731 
L 927.901676 756.764847 
L 929.194706 750.112785 
L 930.254794 743.419649 
L 931.08065 736.693594 
L 931.671267 729.942814 
L 932.025925 723.175535 
L 932.144192 716.4 
L 932.144192 716.4 
" style="fill:none;stroke:#191970;stroke-linecap:square;stroke-opacity:0.5;stroke-width:0.8;"/>
     </g>
     <g id="text_9">
      <!-- 0.75 -->
      <defs>
       <path d="M 8.203125 72.90625 
L 55.078125 72.90625 
L 55.078125 68.703125 
L 28.609375 0 
L 18.3125 0 
L 43.21875 64.59375 
L 8.203125 64.59375 
z
" id="DejaVuSans-55"/>
      </defs>
      <g style="fill:#191970;" transform="translate(917.365846 640.024547)scale(0.1 -0.1)">
       <use xlink:href="#DejaVuSans-48"/>
       <use x="63.623047" xlink:href="#DejaVuSans-46"/>
       <use x="95.410156" xlink:href="#DejaVuSans-55"/>
       <use x="159.033203" xlink:href="#DejaVuSans-53"/>
      </g>
     </g>
    </g>
    <g id="ytick_4">
     <g id="line2d_10">
      <path clip-path="url(#pf9b4028670)" d="M 996.858923 716.4 
L 996.701233 707.365954 
L 996.228356 698.342914 
L 995.440867 689.341875 
L 994.339726 680.373801 
L 992.926274 671.44962 
L 991.202234 662.580204 
L 989.169707 653.776359 
L 986.831167 645.048811 
L 984.189465 636.408194 
L 981.24782 627.865034 
L 978.009814 619.429741 
L 974.479393 611.112591 
L 970.660859 602.923717 
L 966.558863 594.873097 
L 962.178403 586.970539 
L 957.524817 579.22567 
L 952.603773 571.647927 
L 947.421268 564.246543 
L 941.983615 557.030534 
L 936.297439 550.008692 
L 930.369669 543.189572 
L 924.207526 536.581482 
L 917.818518 530.192474 
L 911.210428 524.030331 
L 904.391308 518.102561 
L 897.369466 512.416385 
L 890.153457 506.978732 
L 882.752073 501.796227 
L 875.17433 496.875183 
L 867.429461 492.221597 
L 859.526903 487.841137 
L 851.476283 483.739141 
L 843.287409 479.920607 
L 834.970259 476.390186 
L 826.534966 473.15218 
L 817.991806 470.210535 
L 809.351189 467.568833 
L 800.623641 465.230293 
L 791.819796 463.197766 
L 782.95038 461.473726 
L 774.026199 460.060274 
L 765.058125 458.959133 
L 756.057086 458.171644 
L 747.034046 457.698767 
L 738 457.541077 
L 728.965954 457.698767 
L 719.942914 458.171644 
L 710.941875 458.959133 
L 701.973801 460.060274 
L 693.04962 461.473726 
L 684.180204 463.197766 
L 675.376359 465.230293 
L 666.648811 467.568833 
L 658.008194 470.210535 
L 649.465034 473.15218 
L 641.029741 476.390186 
L 632.712591 479.920607 
L 624.523717 483.739141 
L 616.473097 487.841137 
L 608.570539 492.221597 
L 600.82567 496.875183 
L 593.247927 501.796227 
L 585.846543 506.978732 
L 578.630534 512.416385 
L 571.608692 518.102561 
L 564.789572 524.030331 
L 558.181482 530.192474 
L 551.792474 536.581482 
L 545.630331 543.189572 
L 539.702561 550.008692 
L 534.016385 557.030534 
L 528.578732 564.246543 
L 523.396227 571.647927 
L 518.475183 579.22567 
L 513.821597 586.970539 
L 509.441137 594.873097 
L 505.339141 602.923717 
L 501.520607 611.112591 
L 497.990186 619.429741 
L 494.75218 627.865034 
L 491.810535 636.408194 
L 489.168833 645.048811 
L 486.830293 653.776359 
L 484.797766 662.580204 
L 483.073726 671.44962 
L 481.660274 680.373801 
L 480.559133 689.341875 
L 479.771644 698.342914 
L 479.298767 707.365954 
L 479.141077 716.4 
L 479.298767 725.434046 
L 479.771644 734.457086 
L 480.559133 743.458125 
L 481.660274 752.426199 
L 483.073726 761.35038 
L 484.797766 770.219796 
L 486.830293 779.023641 
L 489.168833 787.751189 
L 491.810535 796.391806 
L 494.75218 804.934966 
L 497.990186 813.370259 
L 501.520607 821.687409 
L 505.339141 829.876283 
L 509.441137 837.926903 
L 513.821597 845.829461 
L 518.475183 853.57433 
L 523.396227 861.152073 
L 528.578732 868.553457 
L 534.016385 875.769466 
L 539.702561 882.791308 
L 545.630331 889.610428 
L 551.792474 896.218518 
L 558.181482 902.607526 
L 564.789572 908.769669 
L 571.608692 914.697439 
L 578.630534 920.383615 
L 585.846543 925.821268 
L 593.247927 931.003773 
L 600.82567 935.924817 
L 608.570539 940.578403 
L 616.473097 944.958863 
L 624.523717 949.060859 
L 632.712591 952.879393 
L 641.029741 956.409814 
L 649.465034 959.64782 
L 658.008194 962.589465 
L 666.648811 965.231167 
L 675.376359 967.569707 
L 684.180204 969.602234 
L 693.04962 971.326274 
L 701.973801 972.739726 
L 710.941875 973.840867 
L 719.942914 974.628356 
L 728.965954 975.101233 
L 738 975.258923 
L 747.034046 975.101233 
L 756.057086 974.628356 
L 765.058125 973.840867 
L 774.026199 972.739726 
L 782.95038 971.326274 
L 791.819796 969.602234 
L 800.623641 967.569707 
L 809.351189 965.231167 
L 817.991806 962.589465 
L 826.534966 959.64782 
L 834.970259 956.409814 
L 843.287409 952.879393 
L 851.476283 949.060859 
L 859.526903 944.958863 
L 867.429461 940.578403 
L 875.17433 935.924817 
L 882.752073 931.003773 
L 890.153457 925.821268 
L 897.369466 920.383615 
L 904.391308 914.697439 
L 911.210428 908.769669 
L 917.818518 902.607526 
L 924.207526 896.218518 
L 930.369669 889.610428 
L 936.297439 882.791308 
L 941.983615 875.769466 
L 947.421268 868.553457 
L 952.603773 861.152073 
L 957.524817 853.57433 
L 962.178403 845.829461 
L 966.558863 837.926903 
L 970.660859 829.876283 
L 974.479393 821.687409 
L 978.009814 813.370259 
L 981.24782 804.934966 
L 984.189465 796.391806 
L 986.831167 787.751189 
L 989.169707 779.023641 
L 991.202234 770.219796 
L 992.926274 761.35038 
L 994.339726 752.426199 
L 995.440867 743.458125 
L 996.228356 734.457086 
L 996.701233 725.434046 
L 996.858923 716.4 
L 996.858923 716.4 
" style="fill:none;stroke:#191970;stroke-linecap:square;stroke-opacity:0.5;stroke-width:0.8;"/>
     </g>
     <g id="text_10">
      <!-- 1.00 -->
      <g style="fill:#191970;" transform="translate(977.154461 615.259291)scale(0.1 -0.1)">
       <use xlink:href="#DejaVuSans-49"/>
       <use x="63.623047" xlink:href="#DejaVuSans-46"/>
       <use x="95.410156" xlink:href="#DejaVuSans-48"/>
       <use x="159.033203" xlink:href="#DejaVuSans-48"/>
      </g>
     </g>
    </g>
    <g id="ytick_5">
     <g id="line2d_11">
      <path clip-path="url(#pf9b4028670)" d="M 1061.573654 716.4 
L 1061.376541 705.107442 
L 1060.785445 693.828643 
L 1059.801083 682.577343 
L 1058.424657 671.367251 
L 1056.657843 660.212025 
L 1054.502793 649.125255 
L 1051.962133 638.120448 
L 1049.038959 627.211014 
L 1045.736832 616.410242 
L 1042.059775 605.731293 
L 1038.012267 595.187176 
L 1033.599242 584.790738 
L 1028.826073 574.554646 
L 1023.698579 564.491371 
L 1018.223004 554.613173 
L 1012.406021 544.932087 
L 1006.254716 535.459909 
L 999.776585 526.208178 
L 992.979519 517.188167 
L 985.871799 508.410865 
L 978.462086 499.886965 
L 970.759407 491.626853 
L 962.773147 483.640593 
L 954.513035 475.937914 
L 945.989135 468.528201 
L 937.211833 461.420481 
L 928.191822 454.623415 
L 918.940091 448.145284 
L 909.467913 441.993979 
L 899.786827 436.176996 
L 889.908629 430.701421 
L 879.845354 425.573927 
L 869.609262 420.800758 
L 859.212824 416.387733 
L 848.668707 412.340225 
L 837.989758 408.663168 
L 827.188986 405.361041 
L 816.279552 402.437867 
L 805.274745 399.897207 
L 794.187975 397.742157 
L 783.032749 395.975343 
L 771.822657 394.598917 
L 760.571357 393.614555 
L 749.292558 393.023459 
L 738 392.826346 
L 726.707442 393.023459 
L 715.428643 393.614555 
L 704.177343 394.598917 
L 692.967251 395.975343 
L 681.812025 397.742157 
L 670.725255 399.897207 
L 659.720448 402.437867 
L 648.811014 405.361041 
L 638.010242 408.663168 
L 627.331293 412.340225 
L 616.787176 416.387733 
L 606.390738 420.800758 
L 596.154646 425.573927 
L 586.091371 430.701421 
L 576.213173 436.176996 
L 566.532087 441.993979 
L 557.059909 448.145284 
L 547.808178 454.623415 
L 538.788167 461.420481 
L 530.010865 468.528201 
L 521.486965 475.937914 
L 513.226853 483.640593 
L 505.240593 491.626853 
L 497.537914 499.886965 
L 490.128201 508.410865 
L 483.020481 517.188167 
L 476.223415 526.208178 
L 469.745284 535.459909 
L 463.593979 544.932087 
L 457.776996 554.613173 
L 452.301421 564.491371 
L 447.173927 574.554646 
L 442.400758 584.790738 
L 437.987733 595.187176 
L 433.940225 605.731293 
L 430.263168 616.410242 
L 426.961041 627.211014 
L 424.037867 638.120448 
L 421.497207 649.125255 
L 419.342157 660.212025 
L 417.575343 671.367251 
L 416.198917 682.577343 
L 415.214555 693.828643 
L 414.623459 705.107442 
L 414.426346 716.4 
L 414.623459 727.692558 
L 415.214555 738.971357 
L 416.198917 750.222657 
L 417.575343 761.432749 
L 419.342157 772.587975 
L 421.497207 783.674745 
L 424.037867 794.679552 
L 426.961041 805.588986 
L 430.263168 816.389758 
L 433.940225 827.068707 
L 437.987733 837.612824 
L 442.400758 848.009262 
L 447.173927 858.245354 
L 452.301421 868.308629 
L 457.776996 878.186827 
L 463.593979 887.867913 
L 469.745284 897.340091 
L 476.223415 906.591822 
L 483.020481 915.611833 
L 490.128201 924.389135 
L 497.537914 932.913035 
L 505.240593 941.173147 
L 513.226853 949.159407 
L 521.486965 956.862086 
L 530.010865 964.271799 
L 538.788167 971.379519 
L 547.808178 978.176585 
L 557.059909 984.654716 
L 566.532087 990.806021 
L 576.213173 996.623004 
L 586.091371 1002.098579 
L 596.154646 1007.226073 
L 606.390738 1011.999242 
L 616.787176 1016.412267 
L 627.331293 1020.459775 
L 638.010242 1024.136832 
L 648.811014 1027.438959 
L 659.720448 1030.362133 
L 670.725255 1032.902793 
L 681.812025 1035.057843 
L 692.967251 1036.824657 
L 704.177343 1038.201083 
L 715.428643 1039.185445 
L 726.707442 1039.776541 
L 738 1039.973654 
L 749.292558 1039.776541 
L 760.571357 1039.185445 
L 771.822657 1038.201083 
L 783.032749 1036.824657 
L 794.187975 1035.057843 
L 805.274745 1032.902793 
L 816.279552 1030.362133 
L 827.188986 1027.438959 
L 837.989758 1024.136832 
L 848.668707 1020.459775 
L 859.212824 1016.412267 
L 869.609262 1011.999242 
L 879.845354 1007.226073 
L 889.908629 1002.098579 
L 899.786827 996.623004 
L 909.467913 990.806021 
L 918.940091 984.654716 
L 928.191822 978.176585 
L 937.211833 971.379519 
L 945.989135 964.271799 
L 954.513035 956.862086 
L 962.773147 949.159407 
L 970.759407 941.173147 
L 978.462086 932.913035 
L 985.871799 924.389135 
L 992.979519 915.611833 
L 999.776585 906.591822 
L 1006.254716 897.340091 
L 1012.406021 887.867913 
L 1018.223004 878.186827 
L 1023.698579 868.308629 
L 1028.826073 858.245354 
L 1033.599242 848.009262 
L 1038.012267 837.612824 
L 1042.059775 827.068707 
L 1045.736832 816.389758 
L 1049.038959 805.588986 
L 1051.962133 794.679552 
L 1054.502793 783.674745 
L 1056.657843 772.587975 
L 1058.424657 761.432749 
L 1059.801083 750.222657 
L 1060.785445 738.971357 
L 1061.376541 727.692558 
L 1061.573654 716.4 
L 1061.573654 716.4 
" style="fill:none;stroke:#191970;stroke-linecap:square;stroke-opacity:0.5;stroke-width:0.8;"/>
     </g>
     <g id="text_11">
      <!-- 1.25 -->
      <g style="fill:#191970;" transform="translate(1036.943076 590.494036)scale(0.1 -0.1)">
       <use xlink:href="#DejaVuSans-49"/>
       <use x="63.623047" xlink:href="#DejaVuSans-46"/>
       <use x="95.410156" xlink:href="#DejaVuSans-50"/>
       <use x="159.033203" xlink:href="#DejaVuSans-53"/>
      </g>
     </g>
    </g>
    <g id="ytick_6">
     <g id="line2d_12">
      <path clip-path="url(#pf9b4028670)" d="M 1126.288384 716.4 
L 1126.05185 702.848931 
L 1125.342533 689.314372 
L 1124.1613 675.812812 
L 1122.509589 662.360701 
L 1120.389411 648.97443 
L 1117.803352 635.670305 
L 1114.75456 622.464538 
L 1111.246751 609.373216 
L 1107.284198 596.41229 
L 1102.87173 583.597551 
L 1098.014721 570.944611 
L 1092.71909 558.468886 
L 1086.991288 546.185576 
L 1080.838294 534.109645 
L 1074.267605 522.255808 
L 1067.287225 510.638505 
L 1059.90566 499.271891 
L 1052.131902 488.169814 
L 1043.975422 477.3458 
L 1035.446159 466.813037 
L 1026.554504 456.584358 
L 1017.311289 446.672224 
L 1007.727776 437.088711 
L 997.815642 427.845496 
L 987.586963 418.953841 
L 977.0542 410.424578 
L 966.230186 402.268098 
L 955.128109 394.49434 
L 943.761495 387.112775 
L 932.144192 380.132395 
L 920.290355 373.561706 
L 908.214424 367.408712 
L 895.931114 361.68091 
L 883.455389 356.385279 
L 870.802449 351.52827 
L 857.98771 347.115802 
L 845.026784 343.153249 
L 831.935462 339.64544 
L 818.729695 336.596648 
L 805.42557 334.010589 
L 792.039299 331.890411 
L 778.587188 330.2387 
L 765.085628 329.057467 
L 751.551069 328.34815 
L 738 328.111616 
L 724.448931 328.34815 
L 710.914372 329.057467 
L 697.412812 330.2387 
L 683.960701 331.890411 
L 670.57443 334.010589 
L 657.270305 336.596648 
L 644.064538 339.64544 
L 630.973216 343.153249 
L 618.01229 347.115802 
L 605.197551 351.52827 
L 592.544611 356.385279 
L 580.068886 361.68091 
L 567.785576 367.408712 
L 555.709645 373.561706 
L 543.855808 380.132395 
L 532.238505 387.112775 
L 520.871891 394.49434 
L 509.769814 402.268098 
L 498.9458 410.424578 
L 488.413037 418.953841 
L 478.184358 427.845496 
L 468.272224 437.088711 
L 458.688711 446.672224 
L 449.445496 456.584358 
L 440.553841 466.813037 
L 432.024578 477.3458 
L 423.868098 488.169814 
L 416.09434 499.271891 
L 408.712775 510.638505 
L 401.732395 522.255808 
L 395.161706 534.109645 
L 389.008712 546.185576 
L 383.28091 558.468886 
L 377.985279 570.944611 
L 373.12827 583.597551 
L 368.715802 596.41229 
L 364.753249 609.373216 
L 361.24544 622.464538 
L 358.196648 635.670305 
L 355.610589 648.97443 
L 353.490411 662.360701 
L 351.8387 675.812812 
L 350.657467 689.314372 
L 349.94815 702.848931 
L 349.711616 716.4 
L 349.94815 729.951069 
L 350.657467 743.485628 
L 351.8387 756.987188 
L 353.490411 770.439299 
L 355.610589 783.82557 
L 358.196648 797.129695 
L 361.24544 810.335462 
L 364.753249 823.426784 
L 368.715802 836.38771 
L 373.12827 849.202449 
L 377.985279 861.855389 
L 383.28091 874.331114 
L 389.008712 886.614424 
L 395.161706 898.690355 
L 401.732395 910.544192 
L 408.712775 922.161495 
L 416.09434 933.528109 
L 423.868098 944.630186 
L 432.024578 955.4542 
L 440.553841 965.986963 
L 449.445496 976.215642 
L 458.688711 986.127776 
L 468.272224 995.711289 
L 478.184358 1004.954504 
L 488.413037 1013.846159 
L 498.9458 1022.375422 
L 509.769814 1030.531902 
L 520.871891 1038.30566 
L 532.238505 1045.687225 
L 543.855808 1052.667605 
L 555.709645 1059.238294 
L 567.785576 1065.391288 
L 580.068886 1071.11909 
L 592.544611 1076.414721 
L 605.197551 1081.27173 
L 618.01229 1085.684198 
L 630.973216 1089.646751 
L 644.064538 1093.15456 
L 657.270305 1096.203352 
L 670.57443 1098.789411 
L 683.960701 1100.909589 
L 697.412812 1102.5613 
L 710.914372 1103.742533 
L 724.448931 1104.45185 
L 738 1104.688384 
L 751.551069 1104.45185 
L 765.085628 1103.742533 
L 778.587188 1102.5613 
L 792.039299 1100.909589 
L 805.42557 1098.789411 
L 818.729695 1096.203352 
L 831.935462 1093.15456 
L 845.026784 1089.646751 
L 857.98771 1085.684198 
L 870.802449 1081.27173 
L 883.455389 1076.414721 
L 895.931114 1071.11909 
L 908.214424 1065.391288 
L 920.290355 1059.238294 
L 932.144192 1052.667605 
L 943.761495 1045.687225 
L 955.128109 1038.30566 
L 966.230186 1030.531902 
L 977.0542 1022.375422 
L 987.586963 1013.846159 
L 997.815642 1004.954504 
L 1007.727776 995.711289 
L 1017.311289 986.127776 
L 1026.554504 976.215642 
L 1035.446159 965.986963 
L 1043.975422 955.4542 
L 1052.131902 944.630186 
L 1059.90566 933.528109 
L 1067.287225 922.161495 
L 1074.267605 910.544192 
L 1080.838294 898.690355 
L 1086.991288 886.614424 
L 1092.71909 874.331114 
L 1098.014721 861.855389 
L 1102.87173 849.202449 
L 1107.284198 836.38771 
L 1111.246751 823.426784 
L 1114.75456 810.335462 
L 1117.803352 797.129695 
L 1120.389411 783.82557 
L 1122.509589 770.439299 
L 1124.1613 756.987188 
L 1125.342533 743.485628 
L 1126.05185 729.951069 
L 1126.288384 716.4 
L 1126.288384 716.4 
" style="fill:none;stroke:#191970;stroke-linecap:square;stroke-opacity:0.5;stroke-width:0.8;"/>
     </g>
     <g id="text_12">
      <!-- 1.50 -->
      <g style="fill:#191970;" transform="translate(1096.731691 565.728781)scale(0.1 -0.1)">
       <use xlink:href="#DejaVuSans-49"/>
       <use x="63.623047" xlink:href="#DejaVuSans-46"/>
       <use x="95.410156" xlink:href="#DejaVuSans-53"/>
       <use x="159.033203" xlink:href="#DejaVuSans-48"/>
      </g>
     </g>
    </g>
    <g id="ytick_7">
     <g id="line2d_13">
      <path clip-path="url(#pf9b4028670)" d="M 1191.003115 716.4 
L 1190.727158 700.590419 
L 1189.899622 684.8001 
L 1188.521517 669.048281 
L 1186.59452 653.354152 
L 1184.12098 637.736835 
L 1181.10391 622.215356 
L 1177.546987 606.808628 
L 1173.454543 591.535419 
L 1168.831565 576.414339 
L 1163.683685 561.46381 
L 1158.017174 546.702046 
L 1151.838938 532.147034 
L 1145.156503 517.816505 
L 1137.97801 503.72792 
L 1130.312206 489.898442 
L 1122.168429 476.344922 
L 1113.556603 463.083873 
L 1104.487219 450.13145 
L 1094.971326 437.503434 
L 1085.020519 425.21521 
L 1074.646921 413.281751 
L 1063.86317 401.717594 
L 1052.682406 390.53683 
L 1041.118249 379.753079 
L 1029.18479 369.379481 
L 1016.896566 359.428674 
L 1004.26855 349.912781 
L 991.316127 340.843397 
L 978.055078 332.231571 
L 964.501558 324.087794 
L 950.67208 316.42199 
L 936.583495 309.243497 
L 922.252966 302.561062 
L 907.697954 296.382826 
L 892.93619 290.716315 
L 877.985661 285.568435 
L 862.864581 280.945457 
L 847.591372 276.853013 
L 832.184644 273.29609 
L 816.663165 270.27902 
L 801.045848 267.80548 
L 785.351719 265.878483 
L 769.5999 264.500378 
L 753.809581 263.672842 
L 738 263.396885 
L 722.190419 263.672842 
L 706.4001 264.500378 
L 690.648281 265.878483 
L 674.954152 267.80548 
L 659.336835 270.27902 
L 643.815356 273.29609 
L 628.408628 276.853013 
L 613.135419 280.945457 
L 598.014339 285.568435 
L 583.06381 290.716315 
L 568.302046 296.382826 
L 553.747034 302.561062 
L 539.416505 309.243497 
L 525.32792 316.42199 
L 511.498442 324.087794 
L 497.944922 332.231571 
L 484.683873 340.843397 
L 471.73145 349.912781 
L 459.103434 359.428674 
L 446.81521 369.379481 
L 434.881751 379.753079 
L 423.317594 390.53683 
L 412.13683 401.717594 
L 401.353079 413.281751 
L 390.979481 425.21521 
L 381.028674 437.503434 
L 371.512781 450.13145 
L 362.443397 463.083873 
L 353.831571 476.344922 
L 345.687794 489.898442 
L 338.02199 503.72792 
L 330.843497 517.816505 
L 324.161062 532.147034 
L 317.982826 546.702046 
L 312.316315 561.46381 
L 307.168435 576.414339 
L 302.545457 591.535419 
L 298.453013 606.808628 
L 294.89609 622.215356 
L 291.87902 637.736835 
L 289.40548 653.354152 
L 287.478483 669.048281 
L 286.100378 684.8001 
L 285.272842 700.590419 
L 284.996885 716.4 
L 285.272842 732.209581 
L 286.100378 747.9999 
L 287.478483 763.751719 
L 289.40548 779.445848 
L 291.87902 795.063165 
L 294.89609 810.584644 
L 298.453013 825.991372 
L 302.545457 841.264581 
L 307.168435 856.385661 
L 312.316315 871.33619 
L 317.982826 886.097954 
L 324.161062 900.652966 
L 330.843497 914.983495 
L 338.02199 929.07208 
L 345.687794 942.901558 
L 353.831571 956.455078 
L 362.443397 969.716127 
L 371.512781 982.66855 
L 381.028674 995.296566 
L 390.979481 1007.58479 
L 401.353079 1019.518249 
L 412.13683 1031.082406 
L 423.317594 1042.26317 
L 434.881751 1053.046921 
L 446.81521 1063.420519 
L 459.103434 1073.371326 
L 471.73145 1082.887219 
L 484.683873 1091.956603 
L 497.944922 1100.568429 
L 511.498442 1108.712206 
L 525.32792 1116.37801 
L 539.416505 1123.556503 
L 553.747034 1130.238938 
L 568.302046 1136.417174 
L 583.06381 1142.083685 
L 598.014339 1147.231565 
L 613.135419 1151.854543 
L 628.408628 1155.946987 
L 643.815356 1159.50391 
L 659.336835 1162.52098 
L 674.954152 1164.99452 
L 690.648281 1166.921517 
L 706.4001 1168.299622 
L 722.190419 1169.127158 
L 738 1169.403115 
L 753.809581 1169.127158 
L 769.5999 1168.299622 
L 785.351719 1166.921517 
L 801.045848 1164.99452 
L 816.663165 1162.52098 
L 832.184644 1159.50391 
L 847.591372 1155.946987 
L 862.864581 1151.854543 
L 877.985661 1147.231565 
L 892.93619 1142.083685 
L 907.697954 1136.417174 
L 922.252966 1130.238938 
L 936.583495 1123.556503 
L 950.67208 1116.37801 
L 964.501558 1108.712206 
L 978.055078 1100.568429 
L 991.316127 1091.956603 
L 1004.26855 1082.887219 
L 1016.896566 1073.371326 
L 1029.18479 1063.420519 
L 1041.118249 1053.046921 
L 1052.682406 1042.26317 
L 1063.86317 1031.082406 
L 1074.646921 1019.518249 
L 1085.020519 1007.58479 
L 1094.971326 995.296566 
L 1104.487219 982.66855 
L 1113.556603 969.716127 
L 1122.168429 956.455078 
L 1130.312206 942.901558 
L 1137.97801 929.07208 
L 1145.156503 914.983495 
L 1151.838938 900.652966 
L 1158.017174 886.097954 
L 1163.683685 871.33619 
L 1168.831565 856.385661 
L 1173.454543 841.264581 
L 1177.546987 825.991372 
L 1181.10391 810.584644 
L 1184.12098 795.063165 
L 1186.59452 779.445848 
L 1188.521517 763.751719 
L 1189.899622 747.9999 
L 1190.727158 732.209581 
L 1191.003115 716.4 
L 1191.003115 716.4 
" style="fill:none;stroke:#191970;stroke-linecap:square;stroke-opacity:0.5;stroke-width:0.8;"/>
     </g>
     <g id="text_13">
      <!-- 1.75 -->
      <g style="fill:#191970;" transform="translate(1156.520306 540.963526)scale(0.1 -0.1)">
       <use xlink:href="#DejaVuSans-49"/>
       <use x="63.623047" xlink:href="#DejaVuSans-46"/>
       <use x="95.410156" xlink:href="#DejaVuSans-55"/>
       <use x="159.033203" xlink:href="#DejaVuSans-53"/>
      </g>
     </g>
    </g>
    <g id="ytick_8">
     <g id="line2d_14">
      <path clip-path="url(#pf9b4028670)" d="M 1255.717846 716.4 
L 1255.402466 698.331908 
L 1254.456711 680.285829 
L 1252.881733 662.283749 
L 1250.679451 644.347602 
L 1247.852549 626.49924 
L 1244.404469 608.760407 
L 1240.339413 591.152717 
L 1235.662335 573.697622 
L 1230.378931 556.416387 
L 1224.495639 539.330068 
L 1218.019628 522.459481 
L 1210.958787 505.825181 
L 1203.321718 489.447434 
L 1195.117726 473.346194 
L 1186.356807 457.541077 
L 1177.049634 442.05134 
L 1167.207546 426.895855 
L 1156.842536 412.093085 
L 1145.96723 397.661067 
L 1134.594879 383.617383 
L 1122.739338 369.979144 
L 1110.415052 356.762965 
L 1097.637035 343.984948 
L 1084.420856 331.660662 
L 1070.782617 319.805121 
L 1056.738933 308.43277 
L 1042.306915 297.557464 
L 1027.504145 287.192454 
L 1012.34866 277.350366 
L 996.858923 268.043193 
L 981.053806 259.282274 
L 964.952566 251.078282 
L 948.574819 243.441213 
L 931.940519 236.380372 
L 915.069932 229.904361 
L 897.983613 224.021069 
L 880.702378 218.737665 
L 863.247283 214.060587 
L 845.639593 209.995531 
L 827.90076 206.547451 
L 810.052398 203.720549 
L 792.116251 201.518267 
L 774.114171 199.943289 
L 756.068092 198.997534 
L 738 198.682154 
L 719.931908 198.997534 
L 701.885829 199.943289 
L 683.883749 201.518267 
L 665.947602 203.720549 
L 648.09924 206.547451 
L 630.360407 209.995531 
L 612.752717 214.060587 
L 595.297622 218.737665 
L 578.016387 224.021069 
L 560.930068 229.904361 
L 544.059481 236.380372 
L 527.425181 243.441213 
L 511.047434 251.078282 
L 494.946194 259.282274 
L 479.141077 268.043193 
L 463.65134 277.350366 
L 448.495855 287.192454 
L 433.693085 297.557464 
L 419.261067 308.43277 
L 405.217383 319.805121 
L 391.579144 331.660662 
L 378.362965 343.984948 
L 365.584948 356.762965 
L 353.260662 369.979144 
L 341.405121 383.617383 
L 330.03277 397.661067 
L 319.157464 412.093085 
L 308.792454 426.895855 
L 298.950366 442.05134 
L 289.643193 457.541077 
L 280.882274 473.346194 
L 272.678282 489.447434 
L 265.041213 505.825181 
L 257.980372 522.459481 
L 251.504361 539.330068 
L 245.621069 556.416387 
L 240.337665 573.697622 
L 235.660587 591.152717 
L 231.595531 608.760407 
L 228.147451 626.49924 
L 225.320549 644.347602 
L 223.118267 662.283749 
L 221.543289 680.285829 
L 220.597534 698.331908 
L 220.282154 716.4 
L 220.597534 734.468092 
L 221.543289 752.514171 
L 223.118267 770.516251 
L 225.320549 788.452398 
L 228.147451 806.30076 
L 231.595531 824.039593 
L 235.660587 841.647283 
L 240.337665 859.102378 
L 245.621069 876.383613 
L 251.504361 893.469932 
L 257.980372 910.340519 
L 265.041213 926.974819 
L 272.678282 943.352566 
L 280.882274 959.453806 
L 289.643193 975.258923 
L 298.950366 990.74866 
L 308.792454 1005.904145 
L 319.157464 1020.706915 
L 330.03277 1035.138933 
L 341.405121 1049.182617 
L 353.260662 1062.820856 
L 365.584948 1076.037035 
L 378.362965 1088.815052 
L 391.579144 1101.139338 
L 405.217383 1112.994879 
L 419.261067 1124.36723 
L 433.693085 1135.242536 
L 448.495855 1145.607546 
L 463.65134 1155.449634 
L 479.141077 1164.756807 
L 494.946194 1173.517726 
L 511.047434 1181.721718 
L 527.425181 1189.358787 
L 544.059481 1196.419628 
L 560.930068 1202.895639 
L 578.016387 1208.778931 
L 595.297622 1214.062335 
L 612.752717 1218.739413 
L 630.360407 1222.804469 
L 648.09924 1226.252549 
L 665.947602 1229.079451 
L 683.883749 1231.281733 
L 701.885829 1232.856711 
L 719.931908 1233.802466 
L 738 1234.117846 
L 756.068092 1233.802466 
L 774.114171 1232.856711 
L 792.116251 1231.281733 
L 810.052398 1229.079451 
L 827.90076 1226.252549 
L 845.639593 1222.804469 
L 863.247283 1218.739413 
L 880.702378 1214.062335 
L 897.983613 1208.778931 
L 915.069932 1202.895639 
L 931.940519 1196.419628 
L 948.574819 1189.358787 
L 964.952566 1181.721718 
L 981.053806 1173.517726 
L 996.858923 1164.756807 
L 1012.34866 1155.449634 
L 1027.504145 1145.607546 
L 1042.306915 1135.242536 
L 1056.738933 1124.36723 
L 1070.782617 1112.994879 
L 1084.420856 1101.139338 
L 1097.637035 1088.815052 
L 1110.415052 1076.037035 
L 1122.739338 1062.820856 
L 1134.594879 1049.182617 
L 1145.96723 1035.138933 
L 1156.842536 1020.706915 
L 1167.207546 1005.904145 
L 1177.049634 990.74866 
L 1186.356807 975.258923 
L 1195.117726 959.453806 
L 1203.321718 943.352566 
L 1210.958787 926.974819 
L 1218.019628 910.340519 
L 1224.495639 893.469932 
L 1230.378931 876.383613 
L 1235.662335 859.102378 
L 1240.339413 841.647283 
L 1244.404469 824.039593 
L 1247.852549 806.30076 
L 1250.679451 788.452398 
L 1252.881733 770.516251 
L 1254.456711 752.514171 
L 1255.402466 734.468092 
L 1255.717846 716.4 
L 1255.717846 716.4 
" style="fill:none;stroke:#191970;stroke-linecap:square;stroke-opacity:0.5;stroke-width:0.8;"/>
     </g>
     <g id="text_14">
      <!-- 2.00 -->
      <g style="fill:#191970;" transform="translate(1216.308921 516.19827)scale(0.1 -0.1)">
       <use xlink:href="#DejaVuSans-50"/>
       <use x="63.623047" xlink:href="#DejaVuSans-46"/>
       <use x="95.410156" xlink:href="#DejaVuSans-48"/>
       <use x="159.033203" xlink:href="#DejaVuSans-48"/>
      </g>
     </g>
    </g>
   </g>
   <g id="line2d_15">
    <path clip-path="url(#pf9b4028670)" d="M 802.714731 716.4 
L 705.642635 660.355399 
L 705.642635 772.444601 
" style="fill:none;"/>
    <defs>
     <path d="M 0 25 
C 6.630078 25 12.989497 22.365842 17.67767 17.67767 
C 22.365842 12.989497 25 6.630078 25 0 
C 25 -6.630078 22.365842 -12.989497 17.67767 -17.67767 
C 12.989497 -22.365842 6.630078 -25 0 -25 
C -6.630078 -25 -12.989497 -22.365842 -17.67767 -17.67767 
C -22.365842 -12.989497 -25 -6.630078 -25 0 
C -25 6.630078 -22.365842 12.989497 -17.67767 17.67767 
C -12.989497 22.365842 -6.630078 25 0 25 
z
" id="m102cdada45" style="stroke:#ffff00;stroke-width:7;"/>
    </defs>
    <g clip-path="url(#pf9b4028670)">
     <use style="fill:#ffd700;stroke:#ffff00;stroke-width:7;" x="802.714731" xlink:href="#m102cdada45" y="716.4"/>
     <use style="fill:#ffd700;stroke:#ffff00;stroke-width:7;" x="705.642635" xlink:href="#m102cdada45" y="660.355399"/>
     <use style="fill:#ffd700;stroke:#ffff00;stroke-width:7;" x="705.642635" xlink:href="#m102cdada45" y="772.444601"/>
    </g>
   </g>
   <g id="patch_5">
    <path d="M 1281.6 716.4 
C 1281.6 645.015102 1267.538732 574.324332 1240.220914 508.373286 
C 1212.903096 442.42224 1172.859992 382.493499 1122.383246 332.016754 
C 1071.906501 281.540008 1011.97776 241.496904 946.026714 214.179086 
C 880.075668 186.861268 809.384898 172.8 738 172.8 
C 666.615102 172.8 595.924332 186.861268 529.973286 214.179086 
C 464.02224 241.496904 404.093499 281.540008 353.616754 332.016754 
C 303.140008 382.493499 263.096904 442.42224 235.779086 508.373286 
C 208.461268 574.324332 194.4 645.015102 194.4 716.4 
C 194.4 787.784898 208.461268 858.475668 235.779086 924.426714 
C 263.096904 990.37776 303.140008 1050.306501 353.616754 1100.783246 
C 404.093499 1151.259992 464.02224 1191.303096 529.973286 1218.620914 
C 595.924332 1245.938732 666.615102 1260 738 1260 
C 809.384898 1260 880.075668 1245.938732 946.026714 1218.620914 
C 1011.97776 1191.303096 1071.906501 1151.259992 1122.383246 1100.783246 
C 1172.859992 1050.306501 1212.903096 990.37776 1240.220914 924.426714 
C 1267.538732 858.475668 1281.6 787.784898 1281.6 716.4 
" style="fill:none;stroke:#000000;stroke-linecap:square;stroke-linejoin:miter;stroke-width:0.8;"/>
   </g>
  </g>
 </g>
 <defs>
  <clipPath id="pf9b4028670">
   <path d="M 1281.6 716.4 
C 1281.6 645.015102 1267.538732 574.324332 1240.220914 508.373286 
C 1212.903096 442.42224 1172.859992 382.493499 1122.383246 332.016754 
C 1071.906501 281.540008 1011.97776 241.496904 946.026714 214.179086 
C 880.075668 186.861268 809.384898 172.8 738 172.8 
C 666.615102 172.8 595.924332 186.861268 529.973286 214.179086 
C 464.02224 241.496904 404.093499 281.540008 353.616754 332.016754 
C 303.140008 382.493499 263.096904 442.42224 235.779086 508.373286 
C 208.461268 574.324332 194.4 645.015102 194.4 716.4 
C 194.4 787.784898 208.461268 858.475668 235.779086 924.426714 
C 263.096904 990.37776 303.140008 1050.306501 353.616754 1100.783246 
C 404.093499 1151.259992 464.02224 1191.303096 529.973286 1218.620914 
C 595.924332 1245.938732 666.615102 1260 738 1260 
C 809.384898 1260 880.075668 1245.938732 946.026714 1218.620914 
C 1011.97776 1191.303096 1071.906501 1151.259992 1122.383246 1100.783246 
C 1172.859992 1050.306501 1212.903096 990.37776 1240.220914 924.426714 
C 1267.538732 858.475668 1281.6 787.784898 1281.6 716.4 
M 738 716.4 
C 738 716.4 738 716.4 738 716.4 
C 738 716.4 738 716.4 738 716.4 
C 738 716.4 738 716.4 738 716.4 
C 738 716.4 738 716.4 738 716.4 
C 738 716.4 738 716.4 738 716.4 
C 738 716.4 738 716.4 738 716.4 
C 738 716.4 738 716.4 738 716.4 
C 738 716.4 738 716.4 738 716.4 
C 738 716.4 738 716.4 738 716.4 
C 738 716.4 738 716.4 738 716.4 
C 738 716.4 738 716.4 738 716.4 
C 738 716.4 738 716.4 738 716.4 
C 738 716.4 738 716.4 738 716.4 
C 738 716.4 738 716.4 738 716.4 
C 738 716.4 738 716.4 738 716.4 
C 738 716.4 738 716.4 738 716.4 
M 1281.6 716.4 
z
"/>
  </clipPath>
 </defs>
</svg>
